<svg width="15" height="15" viewBox="0 0 15 15" fill="none" xmlns="http://www.w3.org/2000/svg">
<path d="M14.8702 12.1297C15.0358 11.9081 15.0436 11.6061 14.8898 11.3762C13.9616 9.98148 12.5463 8.98351 10.9211 8.57765L10.595 8.49611C10.3725 8.44077 10.1372 8.50641 9.97544 8.66898L9.10475 9.53659C8.75507 9.87293 8.20221 9.87293 7.85253 9.53659L5.46222 7.14576C5.11727 6.79955 5.11727 6.23948 5.46222 5.89327L6.32964 5.02239C6.49104 4.86126 6.55658 4.62751 6.50248 4.40593L6.42095 4.07976C6.01519 2.4542 5.01743 1.03866 3.62302 0.110261C3.39317 -0.043643 3.09127 -0.0357997 2.86972 0.129831L2.54362 0.374459C0.947743 1.57863 0.00667089 3.45998 2.30347e-05 5.45946C-0.0045296 7.14728 0.665929 8.76683 1.86208 9.95735L5.04155 13.1375C6.23182 14.3339 7.85102 15.0045 9.53847 15C11.5387 14.9943 13.421 14.053 14.6256 12.4558L14.8702 12.1297ZM9.53847 13.6953C8.19262 13.7027 6.90019 13.1692 5.95137 12.2145L2.77189 9.03429C1.81738 8.08527 1.28396 6.79255 1.29132 5.44641C1.29407 3.88343 2.01568 2.40862 3.248 1.44756C4.17589 2.18318 4.83689 3.20297 5.1296 4.35048L4.51979 4.95716C3.66476 5.813 3.66476 7.19993 4.51979 8.05578L6.9101 10.4466C7.77636 11.2758 9.14179 11.2758 10.008 10.4466L10.6146 9.83993C11.7719 10.1315 12.7996 10.7992 13.5365 11.7382C12.5756 12.9708 11.1011 13.6926 9.53847 13.6953Z" fill="#A96A24"/>
<path d="M8.59398 6.40605C8.85412 6.66465 9.27427 6.66465 9.53442 6.40605L13.0661 2.87773V4.60187C13.0661 4.97023 13.3647 5.26885 13.733 5.26885C14.1014 5.26885 14.4 4.97023 14.4 4.60187V1.26698C14.4 0.898615 14.1014 0.599998 13.733 0.599998H10.3982C10.0298 0.599998 9.73118 0.898615 9.73118 1.26698C9.73118 1.63534 10.0298 1.93396 10.3982 1.93396H12.1223L8.59398 5.46561C8.33537 5.72575 8.33537 6.1459 8.59398 6.40605Z" fill="#A96A24"/>
</svg>
