<svg width="16" height="12" viewBox="0 0 16 12" fill="none" xmlns="http://www.w3.org/2000/svg">
<path d="M1.4281 2.78322L8.21405 7.00559L15 2.25542M3.16794 1.19983H13.2602C13.8651 1.19983 14.0845 1.24882 14.3057 1.34082C14.5269 1.43282 14.7004 1.56782 14.8187 1.73985C14.937 1.91187 15 2.0825 15 2.55304V9.34695C15 9.81749 14.937 9.98812 14.8187 10.1601C14.7004 10.3322 14.5269 10.4672 14.3057 10.5592C14.0845 10.6512 13.8651 10.7002 13.2602 10.7002H3.16794C2.56296 10.7002 2.34358 10.6512 2.12241 10.5592C1.90124 10.4672 1.72766 10.3322 1.60938 10.1601C1.49109 9.98812 1.4281 9.81749 1.4281 9.34695V2.55304C1.4281 2.0825 1.49109 1.91187 1.60938 1.73985C1.72766 1.56782 1.90124 1.43282 2.12241 1.34082C2.34358 1.24882 2.56296 1.19983 3.16794 1.19983Z" stroke="#A96A24" stroke-width="1.5"/>
</svg>
