<svg width="15" height="19" viewBox="0 0 15 19" fill="none" xmlns="http://www.w3.org/2000/svg">
<path d="M13.4979 0.890873C13.7429 1.13597 13.7429 1.53337 13.4979 1.77847L13.0372 2.23911C15.7896 5.44511 15.6473 10.2802 12.6102 13.3173C11.1767 14.7508 9.34273 15.5393 7.46846 15.683V16.9623H8.93293C9.27955 16.9623 9.56056 17.2433 9.56056 17.5899C9.56056 17.9366 9.27955 18.2176 8.93293 18.2176H4.74874C4.40211 18.2176 4.12111 17.9366 4.12111 17.5899C4.12111 17.2433 4.40211 16.9623 4.74874 16.9623H6.2132V15.683C4.53428 15.5542 2.88756 14.908 1.53206 13.7442L1.07143 14.2049C0.826326 14.45 0.428928 14.45 0.183826 14.2049C-0.0612754 13.9598 -0.0612754 13.5624 0.183826 13.3173L0.775563 12.7256C1.19016 12.3109 1.83441 12.3322 2.23803 12.6938C3.54515 13.8653 5.19161 14.4512 6.83832 14.4518H6.84083H6.84351C8.60949 14.451 10.3753 13.7771 11.7226 12.4297C14.3276 9.82466 14.4157 5.65539 11.9868 2.94508C11.6251 2.54146 11.6039 1.8972 12.0185 1.48261L12.6102 0.890873C12.8554 0.645771 13.2528 0.645771 13.4979 0.890873Z" fill="#A96A24"/>
<path fill-rule="evenodd" clip-rule="evenodd" d="M1.19217 7.54788C1.19217 4.42822 3.72116 1.89922 6.84083 1.89922C9.96048 1.89922 12.4895 4.42822 12.4895 7.54788C12.4895 10.6675 9.96048 13.1965 6.84083 13.1965C3.72116 13.1965 1.19217 10.6675 1.19217 7.54788ZM6.84083 3.15448C4.41441 3.15448 2.44743 5.12147 2.44743 7.54788C2.44743 7.82806 2.47366 8.10212 2.5238 8.36782C2.868 7.99241 3.36247 7.75709 3.91189 7.75709C4.95178 7.75709 5.79478 8.60012 5.79478 9.63998C5.79478 10.4118 5.33034 11.0752 4.66568 11.3659C5.307 11.7321 6.04951 11.9413 6.84083 11.9413C8.96924 11.9413 10.7441 10.4278 11.148 8.41836C10.5885 9.27963 9.61804 9.84919 8.5145 9.84919C6.78133 9.84919 5.37636 8.44422 5.37636 6.71104C5.37636 4.97789 6.78133 3.5729 8.5145 3.5729C8.58689 3.5729 8.65869 3.57535 8.72982 3.58017C8.15759 3.30725 7.51708 3.15448 6.84083 3.15448ZM6.63162 6.71104C6.63162 5.67116 7.47465 4.82816 8.5145 4.82816C9.55436 4.82816 10.3974 5.67116 10.3974 6.71104C10.3974 7.7509 9.55436 8.59393 8.5145 8.59393C7.47465 8.59393 6.63162 7.7509 6.63162 6.71104ZM3.91189 9.01235C3.56527 9.01235 3.28426 9.29336 3.28426 9.63998C3.28426 9.9866 3.56527 10.2676 3.91189 10.2676C4.25852 10.2676 4.53952 9.9866 4.53952 9.63998C4.53952 9.29336 4.25852 9.01235 3.91189 9.01235Z" fill="#A96A24"/>
</svg>
