<svg width="86" height="85" viewBox="0 0 86 85" fill="none" xmlns="http://www.w3.org/2000/svg">
<path d="M66.7999 61.2C66.7999 48.11 56.09 37.4 43 37.4C29.91 37.4 19.2 48.11 19.2 61.2C19.2 74.29 29.91 85 43 85C56.09 85 66.7999 74.29 66.7999 61.2ZM22.6 61.2C22.6 49.98 31.78 40.8 43 40.8C54.2199 40.8 63.3999 49.98 63.3999 61.2C63.3999 72.42 54.2199 81.6 43 81.6C31.78 81.6 22.6 72.42 22.6 61.2Z" fill="#A96A24"/>
<path d="M52.5199 58.1401C54.3899 58.1401 55.7499 56.6101 55.7499 54.9101C55.7499 53.0401 54.2199 51.6801 52.5199 51.6801C50.8199 51.6801 49.2899 53.2101 49.2899 54.9101C49.1199 56.6101 50.6499 58.1401 52.5199 58.1401ZM52.5199 54.7401C52.5199 55.0801 52.3499 55.0801 52.5199 54.7401C52.3499 54.7401 52.3499 54.7401 52.5199 54.7401Z" fill="#A96A24"/>
<path d="M36.88 54.9109C36.88 53.0409 35.35 51.6809 33.65 51.6809C31.95 51.6809 30.42 53.2109 30.42 54.9109C30.42 56.7809 31.95 58.1409 33.65 58.1409C35.35 58.1409 36.88 56.6109 36.88 54.9109ZM33.48 54.7409C33.65 54.7409 33.65 54.7409 33.48 54.7409C33.65 55.0809 33.48 55.0809 33.48 54.7409Z" fill="#A96A24"/>
<path d="M54.22 64.4308C54.22 63.4108 53.54 62.7308 52.52 62.7308C51.5 62.7308 50.82 63.4108 50.82 64.4308C50.82 68.6808 47.25 72.2508 43 72.2508C38.75 72.2508 35.18 68.6808 35.18 64.4308C35.18 63.4108 34.5 62.7308 33.48 62.7308C32.46 62.7308 31.78 63.4108 31.78 64.4308C31.78 70.5508 36.71 75.6508 43 75.6508C49.29 75.6508 54.22 70.5508 54.22 64.4308Z" fill="#A96A24"/>
<path d="M78.8691 12.5799L72.7491 11.7299L70.0291 6.11992C69.5191 4.92992 67.4791 4.92992 66.9691 6.11992L64.2491 11.7299L58.1291 12.5799C57.4491 12.7499 56.9391 13.0899 56.7691 13.7699C56.5991 14.4499 56.7691 15.1299 57.2791 15.4699L61.6991 19.8899L60.6791 26.0099C60.5091 26.6899 60.8491 27.3699 61.3591 27.7099C61.8691 28.0499 62.5491 28.2199 63.2291 27.8799L68.6691 24.9899L74.1091 27.8799C74.2791 28.0499 74.6191 28.0499 74.9591 28.0499C75.2991 28.0499 75.6391 27.8799 75.9791 27.7099C76.4891 27.3699 76.8291 26.6899 76.6591 26.0099L75.6391 19.8899L80.0591 15.4699C80.5691 14.9599 80.7391 14.2799 80.5691 13.7699C80.0591 13.0899 79.5491 12.5799 78.8691 12.5799ZM72.4091 18.0199C72.0691 18.3599 71.8991 19.0399 71.8991 19.5499L72.5791 23.1199L69.3491 21.4199C69.1791 21.2499 68.8391 21.2499 68.4991 21.2499C68.1591 21.2499 67.9891 21.2499 67.6491 21.4199L64.4191 23.1199L65.0991 19.5499C65.2691 19.0399 64.9291 18.3599 64.5891 18.0199L62.0391 15.4699L65.6091 14.9599C66.1191 14.9599 66.6291 14.4499 66.9691 14.1099L68.6691 10.8799L70.3691 14.1099C70.5391 14.6199 71.0491 14.9599 71.7291 14.9599L75.2991 15.4699L72.4091 18.0199Z" fill="#A96A24"/>
<path d="M53.371 12.5799L47.251 11.7299L44.531 6.11992C44.021 4.92992 41.981 4.92992 41.471 6.11992L38.751 11.7299L32.631 12.5799C31.951 12.7499 31.441 13.0899 31.271 13.7699C31.101 14.4499 31.271 15.1299 31.781 15.4699L36.201 19.8899L35.181 26.0099C35.011 26.6899 35.351 27.3699 35.861 27.7099C36.371 28.0499 37.051 28.2199 37.731 27.8799L43.171 24.9899L48.611 27.8799C48.781 28.0499 49.121 28.0499 49.461 28.0499C49.801 28.0499 50.141 27.8799 50.481 27.7099C50.991 27.3699 51.331 26.6899 51.161 26.0099L50.141 19.8899L54.561 15.4699C55.071 14.9599 55.241 14.2799 55.071 13.7699C54.561 13.0899 54.051 12.5799 53.371 12.5799ZM46.911 18.0199C46.571 18.3599 46.401 19.0399 46.401 19.5499L47.081 23.1199L43.851 21.4199C43.681 21.2499 43.341 21.2499 43.001 21.2499C42.661 21.2499 42.491 21.2499 42.151 21.4199L38.921 23.1199L39.601 19.5499C39.771 19.0399 39.431 18.3599 39.091 18.0199L36.541 15.4699L40.111 14.9599C40.621 14.9599 41.131 14.4499 41.471 14.1099L43.171 10.8799L44.871 14.1099C45.041 14.6199 45.551 14.9599 46.231 14.9599L49.801 15.4699L46.911 18.0199Z" fill="#A96A24"/>
<path d="M27.8691 12.5799L21.7491 11.7299L19.0291 6.11992C18.5191 4.92992 16.4791 4.92992 15.9691 6.11992L13.2491 11.7299L7.12907 12.5799C6.44907 12.7499 5.93907 13.0899 5.76907 13.7699C5.59907 14.4499 5.76907 15.1299 6.27907 15.4699L10.6991 19.8899L9.67907 26.0099C9.50907 26.6899 9.84907 27.3699 10.3591 27.7099C10.8691 28.0499 11.5491 28.2199 12.2291 27.8799L17.6691 24.9899L23.1091 27.8799C23.2791 28.0499 23.6191 28.0499 23.9591 28.0499C24.2991 28.0499 24.6391 27.8799 24.9791 27.7099C25.4891 27.3699 25.8291 26.6899 25.6591 26.0099L24.6391 19.8899L29.0591 15.4699C29.5691 14.9599 29.7391 14.2799 29.5691 13.7699C29.0591 13.0899 28.5491 12.5799 27.8691 12.5799ZM21.4091 18.0199C21.0691 18.3599 20.8991 19.0399 20.8991 19.5499L21.5791 23.1199L18.3491 21.4199C18.1791 21.2499 17.8391 21.2499 17.4991 21.2499C17.1591 21.2499 16.9891 21.2499 16.6491 21.4199L13.4191 23.1199L14.0991 19.5499C14.2691 19.0399 13.9291 18.3599 13.5891 18.0199L11.0391 15.4699L14.6091 14.9599C15.1191 14.9599 15.6291 14.4499 15.9691 14.1099L17.6691 10.8799L19.3691 14.1099C19.5391 14.6199 20.0491 14.9599 20.7291 14.9599L24.2991 15.4699L21.4091 18.0199Z" fill="#A96A24"/>
<path d="M77 0H9C4.24 0 0.5 3.74 0.5 8.5V23.8C0.5 28.56 4.24 32.3 9 32.3H77C81.76 32.3 85.5 28.56 85.5 23.8V8.5C85.5 3.74 81.76 0 77 0ZM82.1 23.8C82.1 26.69 79.89 28.9 77 28.9H9C6.11 28.9 3.9 26.69 3.9 23.8V8.5C3.9 5.61 6.11 3.4 9 3.4H77C79.89 3.4 82.1 5.61 82.1 8.5V23.8Z" fill="#A96A24"/>
</svg>
