<svg width="261" height="15" viewBox="0 0 261 15" fill="none" xmlns="http://www.w3.org/2000/svg">
<path fill-rule="evenodd" clip-rule="evenodd" d="M12.0181 15L13 11.0208L12.784 10.9583C12.4567 11.5556 12.1392 12.066 11.8316 12.4896C11.5239 12.9132 11.2064 13.2708 10.8792 13.5625C10.5519 13.8542 10.2115 14.0799 9.85801 14.2396C9.50453 14.3993 9.11833 14.5069 8.6994 14.5625C8.31974 14.6181 7.95645 14.6528 7.60952 14.6667C7.26259 14.6806 6.97785 14.6875 6.75529 14.6875C6.23162 14.6875 5.74723 14.6458 5.30211 14.5625C4.857 14.4792 4.57553 14.3403 4.4577 14.1458C4.33988 13.9514 4.2646 13.6562 4.23187 13.2604C4.19914 12.8646 4.17623 12.4444 4.16314 12C4.16314 11.8611 4.15987 11.691 4.15332 11.4896C4.14678 11.2882 4.1435 11.0764 4.1435 10.8542V8.35417C4.1435 7.97917 4.1566 7.69444 4.18278 7.5H5.0861C5.21702 7.5 5.34794 7.50347 5.47885 7.51042C5.60977 7.51736 5.77341 7.52778 5.96979 7.54167C6.36254 7.56944 6.70619 7.64583 7.00076 7.77083C7.29532 7.89583 7.54733 8.05556 7.7568 8.25C7.99245 8.48611 8.21828 8.84028 8.43429 9.3125C8.6503 9.78472 8.81067 10.2431 8.91541 10.6875H9.15106V4.125H8.91541C8.83686 4.51389 8.74849 4.86458 8.6503 5.17708C8.55211 5.48958 8.4212 5.76389 8.25755 6C8.09391 6.23611 7.88117 6.4375 7.61934 6.60417C7.3575 6.77083 7.03021 6.90278 6.63746 7C6.46727 7.04167 6.25453 7.07292 5.99924 7.09375C5.74396 7.11458 5.48867 7.13194 5.23338 7.14583C4.9781 7.15972 4.75227 7.16667 4.55589 7.16667H4.16314V6.9375C4.16314 6.8125 4.15987 6.63542 4.15332 6.40625C4.14787 6.21528 4.14469 5.97849 4.14378 5.69589L4.1435 4.1875C4.1435 3.27083 4.15332 2.46528 4.17296 1.77083C4.1926 1.07639 4.21551 0.618056 4.24169 0.395833C4.37261 0.368056 4.58535 0.34375 4.87991 0.322917C5.17447 0.302083 5.45921 0.291667 5.73414 0.291667C6.59819 0.291667 7.33132 0.333333 7.93353 0.416667C8.53575 0.5 8.94814 0.597222 9.1707 0.708333C10.1002 1.19444 11.0952 2.13889 12.1556 3.54167L12.352 3.4375L11.0166 0H0.176737V0.208333C0.530211 0.263889 0.818228 0.322917 1.04079 0.385417C1.26334 0.447917 1.47281 0.590278 1.66918 0.8125C1.74773 0.895833 1.80992 1.03125 1.85574 1.21875C1.90156 1.40625 1.93429 1.61806 1.95393 1.85417C1.97356 2.09028 1.98666 2.34028 1.9932 2.60417C1.99975 2.86806 2.00302 3.125 2.00302 3.375V8.64583C2.00302 9.0625 1.99975 9.46875 1.9932 9.86458C1.98666 10.2604 1.98011 10.625 1.97356 10.9583C1.96702 11.2917 1.96375 11.5556 1.96375 11.75C1.96375 11.9722 1.9572 12.1979 1.94411 12.4271C1.93102 12.6562 1.90811 12.875 1.87538 13.0833C1.84265 13.2917 1.80665 13.4757 1.76737 13.6354C1.7281 13.7951 1.67573 13.9167 1.61027 14C1.42699 14.2222 1.19461 14.3958 0.913142 14.5208C0.631672 14.6458 0.327291 14.7361 0 14.7917V15H12.0181ZM45.7273 15C46.4949 15 47.202 14.9119 47.8485 14.7358C48.4949 14.5596 49.0505 14.2886 49.5152 13.9228C49.9798 13.5569 50.3434 13.1165 50.6061 12.6016C50.8687 12.0867 51 11.5041 51 10.8537C51 9.8916 50.7475 9.08875 50.2424 8.44512C49.7374 7.80149 49.0269 7.3103 48.1111 6.97154C47.8552 6.87669 47.6094 6.78862 47.3737 6.70732C47.138 6.62602 46.9057 6.5481 46.6768 6.47358C46.4478 6.39905 46.2155 6.32114 45.9798 6.23984C45.7441 6.15854 45.4916 6.06369 45.2222 5.95528C44.5354 5.69783 43.9764 5.3523 43.5455 4.9187C43.1145 4.4851 42.899 3.90921 42.899 3.19106C42.899 2.73035 42.9764 2.32046 43.1313 1.96138C43.2862 1.6023 43.5017 1.30081 43.7778 1.05691C44.0539 0.813008 44.3771 0.630081 44.7475 0.50813C45.1178 0.386179 45.5118 0.325203 45.9293 0.325203C46.4545 0.325203 46.9327 0.433604 47.3636 0.650406C47.7946 0.867209 48.1785 1.14837 48.5152 1.4939C48.8519 1.83943 49.1481 2.23238 49.404 2.67276C49.6599 3.11314 49.8687 3.55691 50.0303 4.00407H50.2525V0.243902H50.0303C49.9226 0.406504 49.8047 0.569106 49.6768 0.731707C49.5488 0.894309 49.4646 0.97561 49.4242 0.97561C49.4108 0.97561 49.3333 0.924797 49.1919 0.823171C49.0505 0.721545 48.8418 0.609756 48.5657 0.487805C48.2896 0.365854 47.936 0.254065 47.5051 0.152439C47.0741 0.050813 46.5556 0 45.9495 0C45.303 0 44.6869 0.0846883 44.101 0.254065C43.5152 0.423442 43 0.684282 42.5556 1.03659C42.1111 1.38889 41.7576 1.82927 41.4949 2.35772C41.2323 2.88618 41.101 3.51626 41.101 4.24797C41.101 4.68157 41.1751 5.09146 41.3232 5.47764C41.4714 5.86382 41.6667 6.21613 41.9091 6.53455C42.1515 6.85298 42.4343 7.13076 42.7576 7.36789C43.0808 7.60501 43.4175 7.79133 43.7677 7.92683C44.0774 8.04878 44.3434 8.14702 44.5657 8.22154C44.7879 8.29607 45.0034 8.3706 45.2121 8.44512C45.4209 8.51965 45.6465 8.59756 45.8889 8.67886C46.1313 8.76016 46.4141 8.86179 46.7374 8.98374C47.0606 9.10569 47.3636 9.24119 47.6465 9.39024C47.9293 9.5393 48.1751 9.71883 48.3838 9.92886C48.5926 10.1389 48.7576 10.3862 48.8788 10.6707C49 10.9553 49.0606 11.2873 49.0606 11.6667C49.0606 12.6016 48.7508 13.3435 48.1313 13.8923C47.5118 14.4411 46.7037 14.7154 45.7071 14.7154C45.3569 14.7154 44.9933 14.6545 44.6162 14.5325C44.2391 14.4106 43.936 14.2886 43.7071 14.1667C43.4781 14.0447 43.2391 13.8686 42.9899 13.6382C42.7407 13.4079 42.5051 13.1402 42.2828 12.8354C42.0606 12.5305 41.8552 12.2053 41.6667 11.8598C41.4781 11.5142 41.3232 11.1585 41.202 10.7927H41L41.0606 14.8374H41.2424C41.3502 14.6883 41.4714 14.5325 41.6061 14.3699C41.7407 14.2073 41.8283 14.126 41.8687 14.126C41.9091 14.126 42.0067 14.1734 42.1616 14.2683C42.3165 14.3631 42.5488 14.4682 42.8586 14.5833C43.1684 14.6985 43.5589 14.7967 44.0303 14.878C44.5017 14.9593 45.0673 15 45.7273 15ZM84.7273 15C85.4949 15 86.202 14.9119 86.8485 14.7358C87.4949 14.5596 88.0505 14.2886 88.5152 13.9228C88.9798 13.5569 89.3434 13.1165 89.6061 12.6016C89.8687 12.0867 90 11.5041 90 10.8537C90 9.8916 89.7475 9.08875 89.2424 8.44512C88.7374 7.80149 88.0269 7.3103 87.1111 6.97154C86.8552 6.87669 86.6094 6.78862 86.3737 6.70732C86.138 6.62602 85.9057 6.5481 85.6768 6.47358C85.4478 6.39905 85.2155 6.32114 84.9798 6.23984C84.7441 6.15854 84.4916 6.06369 84.2222 5.95528C83.5354 5.69783 82.9764 5.3523 82.5455 4.9187C82.1145 4.4851 81.899 3.90921 81.899 3.19106C81.899 2.73035 81.9764 2.32046 82.1313 1.96138C82.2862 1.6023 82.5017 1.30081 82.7778 1.05691C83.0539 0.813008 83.3771 0.630081 83.7475 0.50813C84.1178 0.386179 84.5118 0.325203 84.9293 0.325203C85.4545 0.325203 85.9327 0.433604 86.3636 0.650406C86.7946 0.867209 87.1785 1.14837 87.5152 1.4939C87.8519 1.83943 88.1481 2.23238 88.404 2.67276C88.6599 3.11314 88.8687 3.55691 89.0303 4.00407H89.2525V0.243902H89.0303C88.9226 0.406504 88.8047 0.569106 88.6768 0.731707C88.5488 0.894309 88.4646 0.97561 88.4242 0.97561C88.4108 0.97561 88.3333 0.924797 88.1919 0.823171C88.0505 0.721545 87.8418 0.609756 87.5657 0.487805C87.2896 0.365854 86.936 0.254065 86.5051 0.152439C86.0741 0.050813 85.5556 0 84.9495 0C84.303 0 83.6869 0.0846883 83.101 0.254065C82.5152 0.423442 82 0.684282 81.5556 1.03659C81.1111 1.38889 80.7576 1.82927 80.4949 2.35772C80.2323 2.88618 80.101 3.51626 80.101 4.24797C80.101 4.68157 80.1751 5.09146 80.3232 5.47764C80.4714 5.86382 80.6667 6.21613 80.9091 6.53455C81.1515 6.85298 81.4343 7.13076 81.7576 7.36789C82.0808 7.60501 82.4175 7.79133 82.7677 7.92683C83.0774 8.04878 83.3434 8.14702 83.5657 8.22154C83.7879 8.29607 84.0034 8.3706 84.2121 8.44512C84.4209 8.51965 84.6465 8.59756 84.8889 8.67886C85.1313 8.76016 85.4141 8.86179 85.7374 8.98374C86.0606 9.10569 86.3636 9.24119 86.6465 9.39024C86.9293 9.5393 87.1751 9.71883 87.3838 9.92886C87.5926 10.1389 87.7576 10.3862 87.8788 10.6707C88 10.9553 88.0606 11.2873 88.0606 11.6667C88.0606 12.6016 87.7508 13.3435 87.1313 13.8923C86.5118 14.4411 85.7037 14.7154 84.7071 14.7154C84.3569 14.7154 83.9933 14.6545 83.6162 14.5325C83.2391 14.4106 82.936 14.2886 82.7071 14.1667C82.4781 14.0447 82.2391 13.8686 81.9899 13.6382C81.7407 13.4079 81.5051 13.1402 81.2828 12.8354C81.0606 12.5305 80.8552 12.2053 80.6667 11.8598C80.4781 11.5142 80.3232 11.1585 80.202 10.7927H80L80.0606 14.8374H80.2424C80.3502 14.6883 80.4714 14.5325 80.6061 14.3699C80.7407 14.2073 80.8283 14.126 80.8687 14.126C80.9091 14.126 81.0067 14.1734 81.1616 14.2683C81.3165 14.3631 81.5488 14.4682 81.8586 14.5833C82.1684 14.6985 82.5589 14.7967 83.0303 14.878C83.5017 14.9593 84.0673 15 84.7273 15ZM131.018 15L132 11.0208L131.784 10.9583C131.457 11.5556 131.139 12.066 130.832 12.4896C130.524 12.9132 130.206 13.2708 129.879 13.5625C129.552 13.8542 129.211 14.0799 128.858 14.2396C128.505 14.3993 128.118 14.5069 127.699 14.5625C127.32 14.6181 126.956 14.6528 126.61 14.6667C126.263 14.6806 125.978 14.6875 125.755 14.6875C125.232 14.6875 124.747 14.6458 124.302 14.5625C123.857 14.4792 123.576 14.3403 123.458 14.1458C123.34 13.9514 123.265 13.6562 123.232 13.2604C123.199 12.8646 123.176 12.4444 123.163 12C123.163 11.8611 123.16 11.691 123.153 11.4896C123.147 11.2882 123.144 11.0764 123.144 10.8542V8.35417C123.144 7.97917 123.157 7.69444 123.183 7.5H124.086C124.217 7.5 124.348 7.50347 124.479 7.51042C124.61 7.51736 124.773 7.52778 124.97 7.54167C125.363 7.56944 125.706 7.64583 126.001 7.77083C126.295 7.89583 126.547 8.05556 126.757 8.25C126.992 8.48611 127.218 8.84028 127.434 9.3125C127.65 9.78472 127.811 10.2431 127.915 10.6875H128.151V4.125H127.915C127.837 4.51389 127.748 4.86458 127.65 5.17708C127.552 5.48958 127.421 5.76389 127.258 6C127.094 6.23611 126.881 6.4375 126.619 6.60417C126.358 6.77083 126.03 6.90278 125.637 7C125.467 7.04167 125.255 7.07292 124.999 7.09375C124.744 7.11458 124.489 7.13194 124.233 7.14583C123.978 7.15972 123.752 7.16667 123.556 7.16667H123.163V6.9375C123.163 6.8125 123.16 6.63542 123.153 6.40625C123.148 6.21528 123.145 5.97849 123.144 5.69589L123.144 4.1875C123.144 3.27083 123.153 2.46528 123.173 1.77083C123.193 1.07639 123.216 0.618056 123.242 0.395833C123.373 0.368056 123.585 0.34375 123.88 0.322917C124.174 0.302083 124.459 0.291667 124.734 0.291667C125.598 0.291667 126.331 0.333333 126.934 0.416667C127.536 0.5 127.948 0.597222 128.171 0.708333C129.1 1.19444 130.095 2.13889 131.156 3.54167L131.352 3.4375L130.017 0H119.177V0.208333C119.53 0.263889 119.818 0.322917 120.041 0.385417C120.263 0.447917 120.473 0.590278 120.669 0.8125C120.748 0.895833 120.81 1.03125 120.856 1.21875C120.902 1.40625 120.934 1.61806 120.954 1.85417C120.974 2.09028 120.987 2.34028 120.993 2.60417C121 2.86806 121.003 3.125 121.003 3.375V8.64583C121.003 9.0625 121 9.46875 120.993 9.86458C120.987 10.2604 120.98 10.625 120.974 10.9583C120.967 11.2917 120.964 11.5556 120.964 11.75C120.964 11.9722 120.957 12.1979 120.944 12.4271C120.931 12.6562 120.908 12.875 120.875 13.0833C120.843 13.2917 120.807 13.4757 120.767 13.6354C120.728 13.7951 120.676 13.9167 120.61 14C120.427 14.2222 120.195 14.3958 119.913 14.5208C119.632 14.6458 119.327 14.7361 119 14.7917V15H131.018ZM173.619 15C173.684 15 173.733 14.9827 173.766 14.9481C173.799 14.9136 173.815 14.8686 173.815 14.8133V13.4647C173.815 12.9668 173.812 12.4654 173.806 11.9606C173.799 11.4557 173.796 10.9613 173.796 10.4772V9.14938C173.796 8.22268 173.806 7.35477 173.825 6.54564C173.845 5.73651 173.868 5.03458 173.894 4.43983C173.92 3.8036 173.947 3.20539 173.973 2.64523C173.999 2.08506 174.058 1.70124 174.15 1.49378C174.308 1.09267 174.534 0.795297 174.829 0.60166C175.124 0.408022 175.515 0.276625 176 0.207469V0H171.119V0.207469C171.749 0.304288 172.231 0.473721 172.566 0.715768C172.9 0.957815 173.133 1.27248 173.264 1.65975C173.369 1.95021 173.428 2.34786 173.442 2.8527C173.455 3.35754 173.461 3.88658 173.461 4.43983V11.4938L164.133 0H160.138V0.207469C160.348 0.235131 160.567 0.280083 160.797 0.342324C161.027 0.404564 161.24 0.508299 161.437 0.653527C161.633 0.798755 161.804 0.999308 161.948 1.25519C162.093 1.51107 162.185 1.83956 162.224 2.24066C162.237 2.64177 162.244 2.98064 162.244 3.25726V5.78838C162.244 6.71508 162.237 7.58299 162.224 8.39212C162.211 9.20125 162.191 9.90318 162.165 10.4979C162.139 11.2863 162.099 11.964 162.047 12.5311C161.994 13.0982 161.876 13.527 161.692 13.8174C161.509 14.1217 161.26 14.3396 160.945 14.471C160.63 14.6024 160.315 14.6888 160 14.7303V14.9378H164.841V14.7303C164.303 14.6611 163.88 14.547 163.572 14.388C163.264 14.2289 163.037 13.9903 162.893 13.6722C162.762 13.3956 162.68 12.9737 162.647 12.4066C162.614 11.8396 162.598 11.2033 162.598 10.4979V1.74274C163.49 2.79391 164.336 3.81051 165.137 4.79253C165.937 5.77455 166.754 6.78077 167.587 7.8112C168.42 8.84163 169.296 9.92393 170.214 11.0581C171.132 12.1923 172.149 13.4371 173.264 14.7925C173.396 14.9308 173.514 15 173.619 15ZM213.092 15C213.839 15 214.5 14.9357 215.074 14.8072C215.649 14.6786 216.136 14.5298 216.536 14.3606C216.937 14.1915 217.244 14.0359 217.458 13.8938C217.671 13.7517 217.792 13.6806 217.818 13.6806C217.885 13.6806 218.005 13.7754 218.179 13.9648C218.352 14.1543 218.519 14.364 218.68 14.594H218.92L218.98 10.1286H218.74C218.619 10.7104 218.396 11.2754 218.069 11.8234C217.742 12.3714 217.341 12.8552 216.867 13.2747C216.393 13.6942 215.852 14.0325 215.245 14.2896C214.637 14.5467 213.986 14.6752 213.292 14.6752C212.411 14.6752 211.609 14.4926 210.888 14.1272C210.167 13.7618 209.553 13.2645 209.046 12.6353C208.538 12.0061 208.148 11.2652 207.874 10.4127C207.6 9.56022 207.464 8.64682 207.464 7.67253C207.464 6.75237 207.594 5.85589 207.854 4.98309C208.114 4.11028 208.488 3.32882 208.976 2.6387C209.463 1.94858 210.067 1.39378 210.788 0.97429C211.509 0.554804 212.33 0.345061 213.252 0.345061C213.919 0.345061 214.55 0.466847 215.144 0.710419C215.739 0.953992 216.273 1.28552 216.747 1.70501C217.221 2.12449 217.631 2.6184 217.979 3.18674C218.326 3.75507 218.586 4.36401 218.76 5.01353L219 4.99323V0.446549H218.78C218.7 0.568336 218.613 0.686739 218.519 0.801759C218.426 0.916779 218.336 1.01827 218.249 1.10622C218.162 1.19418 218.082 1.26861 218.009 1.3295C217.935 1.39039 217.885 1.42084 217.858 1.42084C217.832 1.42084 217.711 1.34641 217.498 1.19756C217.284 1.04871 216.977 0.886333 216.577 0.710419C216.176 0.534506 215.675 0.372124 215.074 0.223275C214.474 0.0744249 213.773 0 212.971 0C212.09 0 211.296 0.0947226 210.588 0.284168C209.88 0.473613 209.246 0.727334 208.685 1.04533C208.124 1.36333 207.637 1.73207 207.223 2.15156C206.809 2.57104 206.462 3.01083 206.182 3.47091C205.941 3.86333 205.744 4.25237 205.591 4.63802C205.437 5.02368 205.317 5.39242 205.23 5.74425C205.144 6.09608 205.083 6.4276 205.05 6.73884C205.017 7.05007 205 7.32747 205 7.57104C205 8.66712 205.187 9.67185 205.561 10.5852C205.935 11.4986 206.472 12.2835 207.173 12.9398C207.874 13.5961 208.725 14.1035 209.727 14.4621C210.728 14.8207 211.85 15 213.092 15ZM260.018 15L261 11.0208L260.784 10.9583C260.457 11.5556 260.139 12.066 259.832 12.4896C259.524 12.9132 259.206 13.2708 258.879 13.5625C258.552 13.8542 258.211 14.0799 257.858 14.2396C257.505 14.3993 257.118 14.5069 256.699 14.5625C256.32 14.6181 255.956 14.6528 255.61 14.6667C255.263 14.6806 254.978 14.6875 254.755 14.6875C254.232 14.6875 253.747 14.6458 253.302 14.5625C252.857 14.4792 252.576 14.3403 252.458 14.1458C252.34 13.9514 252.265 13.6562 252.232 13.2604C252.199 12.8646 252.176 12.4444 252.163 12C252.163 11.8611 252.16 11.691 252.153 11.4896C252.147 11.2882 252.144 11.0764 252.144 10.8542V8.35417C252.144 7.97917 252.157 7.69444 252.183 7.5H253.086C253.217 7.5 253.348 7.50347 253.479 7.51042C253.61 7.51736 253.773 7.52778 253.97 7.54167C254.363 7.56944 254.706 7.64583 255.001 7.77083C255.295 7.89583 255.547 8.05556 255.757 8.25C255.992 8.48611 256.218 8.84028 256.434 9.3125C256.65 9.78472 256.811 10.2431 256.915 10.6875H257.151V4.125H256.915C256.837 4.51389 256.748 4.86458 256.65 5.17708C256.552 5.48958 256.421 5.76389 256.258 6C256.094 6.23611 255.881 6.4375 255.619 6.60417C255.357 6.77083 255.03 6.90278 254.637 7C254.467 7.04167 254.255 7.07292 253.999 7.09375C253.744 7.11458 253.489 7.13194 253.233 7.14583C252.978 7.15972 252.752 7.16667 252.556 7.16667H252.163V6.9375C252.163 6.8125 252.16 6.63542 252.153 6.40625C252.148 6.21528 252.145 5.97849 252.144 5.69589L252.144 4.1875C252.144 3.27083 252.153 2.46528 252.173 1.77083C252.193 1.07639 252.216 0.618056 252.242 0.395833C252.373 0.368056 252.585 0.34375 252.88 0.322917C253.174 0.302083 253.459 0.291667 253.734 0.291667C254.598 0.291667 255.331 0.333333 255.934 0.416667C256.536 0.5 256.948 0.597222 257.171 0.708333C258.1 1.19444 259.095 2.13889 260.156 3.54167L260.352 3.4375L259.017 0H248.177V0.208333C248.53 0.263889 248.818 0.322917 249.041 0.385417C249.263 0.447917 249.473 0.590278 249.669 0.8125C249.748 0.895833 249.81 1.03125 249.856 1.21875C249.902 1.40625 249.934 1.61806 249.954 1.85417C249.974 2.09028 249.987 2.34028 249.993 2.60417C250 2.86806 250.003 3.125 250.003 3.375V8.64583C250.003 9.0625 250 9.46875 249.993 9.86458C249.987 10.2604 249.98 10.625 249.974 10.9583C249.967 11.2917 249.964 11.5556 249.964 11.75C249.964 11.9722 249.957 12.1979 249.944 12.4271C249.931 12.6562 249.908 12.875 249.875 13.0833C249.843 13.2917 249.807 13.4757 249.767 13.6354C249.728 13.7951 249.676 13.9167 249.61 14C249.427 14.2222 249.195 14.3958 248.913 14.5208C248.632 14.6458 248.327 14.7361 248 14.7917V15H260.018Z" fill="#A96A24"/>
</svg>
