<svg width="94" height="94" viewBox="0 0 94 94" fill="none" xmlns="http://www.w3.org/2000/svg">
<path d="M16.2428 37.8439C16.1525 37.9659 16.0785 38.0977 16.02 38.2381V38.3191V38.3184C15.9763 38.4594 15.9523 38.6061 15.9495 38.7535C15.9523 38.9043 15.9763 39.0538 16.02 39.1983V39.2688C16.0757 39.4098 16.1504 39.5424 16.2428 39.663L45.8074 76.7577H45.8067C45.8786 76.8571 45.9675 76.9431 46.0697 77.0108H46.1303C46.2269 77.0813 46.332 77.1392 46.4441 77.1822H46.5555H46.5548C46.8368 77.2766 47.1421 77.2766 47.4241 77.1822H47.5355C47.6469 77.1392 47.7519 77.0813 47.8485 77.0108H47.9092C48.0114 76.9431 48.1002 76.8571 48.1721 76.7577L77.7368 39.663C78.1697 39.1074 78.1697 38.3283 77.7368 37.7727L66.4468 23.6224H66.4461C66.1535 23.265 65.7157 23.057 65.2538 23.0563H28.7348C28.2723 23.057 27.8352 23.265 27.5419 23.6224L16.2519 37.7727C16.2519 37.7727 16.2421 37.8333 16.2421 37.8439L16.2428 37.8439ZM35.1132 40.2799L43.4117 68.915L20.5885 40.2799H35.1132ZM73.4101 40.2799L50.5868 68.9132L58.8853 40.278L73.4101 40.2799ZM46.9987 70.4094L38.2659 40.2799H55.7314L46.9987 70.4094ZM73.4101 37.2476H58.8853L55.6612 26.1289H64.5356L73.4101 37.2476ZM52.5073 26.1289L55.7314 37.2476H38.2659L41.49 26.1289H52.5073ZM29.462 26.1289H38.3365L35.1123 37.2476H20.5876L29.462 26.1289Z" fill="#A96A24"/>
<path d="M19.2136 21.3572C19.497 21.642 19.8833 21.802 20.2852 21.8013C20.6864 21.7978 21.0707 21.6385 21.3569 21.3572C21.9421 20.7628 21.9421 19.8082 21.3569 19.2138L15.9089 13.7658H15.9082C15.311 13.2095 14.3804 13.2258 13.803 13.8032C13.2255 14.3806 13.2093 15.3113 13.7656 15.9085L19.2136 21.3572Z" fill="#A96A24"/>
<path d="M9.21781 45.4835H1.51585C0.678254 45.4835 0 46.1618 0 46.9994C0 47.837 0.678254 48.5152 1.51585 48.5152H9.21781C10.0554 48.5152 10.7337 47.837 10.7337 46.9994C10.7337 46.1618 10.0554 45.4835 9.21781 45.4835Z" fill="#A96A24"/>
<path d="M19.2133 72.6422L13.7653 78.0902V78.0909C13.4791 78.3736 13.3176 78.7592 13.3176 79.1618C13.3176 79.5644 13.4791 79.9501 13.7653 80.2335C14.3576 80.8243 15.3165 80.8243 15.908 80.2335L21.3559 74.7855H21.3566C21.9129 74.1876 21.8967 73.257 21.3193 72.6795C20.7418 72.1021 19.8112 72.0859 19.2133 72.6422L19.2133 72.6422Z" fill="#A96A24"/>
<path d="M47.0002 83.2665C46.1626 83.2665 45.4844 83.9447 45.4844 84.7823V92.4843C45.4844 93.3219 46.1626 94.0001 47.0002 94.0001C47.8378 94.0001 48.5161 93.3219 48.5161 92.4843V84.7823C48.5161 83.9447 47.8378 83.2665 47.0002 83.2665Z" fill="#A96A24"/>
<path d="M74.7871 72.6422C74.1892 72.0859 73.2586 72.1021 72.6811 72.6795C72.1037 73.257 72.0875 74.1876 72.6438 74.7855L78.0917 80.2335H78.0924C78.684 80.8243 79.6428 80.8243 80.2351 80.2335C80.5213 79.9501 80.6828 79.5644 80.6828 79.1618C80.6828 78.7592 80.5213 78.3736 80.2351 78.0909L74.7871 72.6422Z" fill="#A96A24"/>
<path d="M92.4844 45.4835H84.7824C83.9449 45.4835 83.2666 46.1618 83.2666 46.9994C83.2666 47.837 83.9449 48.5152 84.7824 48.5152H92.4844C93.322 48.5152 94.0003 47.837 94.0003 46.9994C94.0003 46.1618 93.322 45.4835 92.4844 45.4835Z" fill="#A96A24"/>
<path d="M78.0919 13.7658L72.6439 19.2138H72.6432C72.058 19.8082 72.058 20.7628 72.6432 21.3571C72.9295 21.6385 73.3137 21.7978 73.7149 21.8013C74.1168 21.802 74.5032 21.642 74.7866 21.3571L80.2346 15.9092V15.9085C80.7908 15.3113 80.7746 14.3806 80.1972 13.8032C79.6198 13.2258 78.6891 13.2095 78.0919 13.7658L78.0919 13.7658Z" fill="#A96A24"/>
<path d="M47.0002 10.7337C47.8378 10.7337 48.5161 10.0554 48.5161 9.21781V1.51585C48.5161 0.678254 47.8378 0 47.0002 0C46.1626 0 45.4844 0.678254 45.4844 1.51585V9.21781C45.4844 10.0554 46.1626 10.7337 47.0002 10.7337Z" fill="#A96A24"/>
</svg>
