<svg width="144" height="15" viewBox="0 0 144 15" fill="none" xmlns="http://www.w3.org/2000/svg">
<path fill-rule="evenodd" clip-rule="evenodd" d="M10.2643 15V14.7912C10.7722 14.75 11.1968 14.6562 11.5396 14.5104C11.882 14.3641 12.1088 14.2014 12.2185 14.0203C12.2454 13.9791 12.2704 13.8958 12.2905 13.7708C12.3105 13.6458 12.3277 13.5 12.3419 13.3333C12.3556 13.1666 12.3659 12.993 12.3727 12.8119C12.3791 12.6319 12.383 12.4582 12.383 12.2916C12.3967 11.8332 12.4031 11.3615 12.4031 10.8754V9.47948V8.31277V7.58309H4.27869V12.0619C4.27869 12.4652 4.28555 12.8541 4.29975 13.2291C4.31347 13.6046 4.37469 13.868 4.4844 14.0203C4.64896 14.2574 4.88259 14.4375 5.1838 14.5625C5.48501 14.6875 5.77986 14.7639 6.06785 14.7912V15H0V14.7912C0.342354 14.7361 0.672464 14.6423 0.98837 14.5104C1.30281 14.3789 1.5428 14.2157 1.70736 14.0203C1.76222 13.9509 1.80679 13.8368 1.84156 13.677C1.87585 13.5178 1.90278 13.3333 1.92384 13.1244C1.94392 12.9166 1.96107 12.6914 1.97527 12.4483C1.98898 12.2053 1.99535 11.9721 1.99535 11.7499C1.99535 11.5559 1.99927 11.2915 2.00613 10.9582C2.01249 10.6249 2.01935 10.2603 2.02621 9.86491C2.03355 9.46906 2.03747 9.0628 2.03747 8.64612V7.43725V3.37561V2.62558C2.03747 2.37557 2.02621 2.14342 2.00613 1.92764C1.98605 1.71236 1.95421 1.5184 1.91307 1.34429C1.87193 1.17067 1.81071 1.03575 1.72744 0.938523C1.53643 0.701412 1.29889 0.531764 1.01874 0.42809C0.737604 0.323423 0.41778 0.250504 0.0622017 0.208836V0H6.19225V0.208836C5.99977 0.237111 5.79406 0.278283 5.57513 0.334336C5.35522 0.388902 5.15588 0.476702 4.97809 0.594266C4.79932 0.712325 4.64896 0.875525 4.52554 1.08436C4.40211 1.29221 4.33355 1.5561 4.31983 1.87556C4.30563 2.36169 4.29583 2.88601 4.28947 3.44853C4.28163 4.01055 4.27869 4.54926 4.27869 5.06316V6.39604V7.16641H12.4031V5.95803V4.87516V3.81263C12.4031 3.452 12.3967 3.04177 12.383 2.58342C12.3688 2.32051 12.3527 2.0457 12.3316 1.76047C12.3105 1.47674 12.2454 1.24359 12.1362 1.06303C11.8893 0.688019 11.6082 0.455868 11.2928 0.365091C10.9769 0.274811 10.6615 0.222726 10.3465 0.208836V0H16.5378V0.208836C16.2087 0.250504 15.8864 0.344257 15.5705 0.490096C15.2546 0.635934 15.0224 0.847746 14.8721 1.12553C14.8167 1.22276 14.7756 1.35818 14.7487 1.5318C14.7212 1.70541 14.7002 1.89986 14.6864 2.11515C14.6732 2.33043 14.6654 2.54919 14.6654 2.77142V3.41728V6.9794V8.37478V9.58315C14.6654 9.97206 14.6693 10.3748 14.6762 10.7915C14.6835 11.2087 14.6864 11.6666 14.6864 12.1666C14.6864 12.5699 14.6972 12.9409 14.7173 13.2812C14.7384 13.6215 14.7888 13.8536 14.8721 13.9791C15.0499 14.2574 15.2903 14.4519 15.5925 14.5625C15.8937 14.6741 16.2219 14.75 16.5789 14.7912V15H10.2643Z" fill="#A96A24"/>
<path fill-rule="evenodd" clip-rule="evenodd" d="M51.3034 2.61597C51.2202 2.79358 51.1007 3.07241 50.9431 3.4539C50.7849 3.8354 50.5901 4.29864 50.3566 4.84364C50.1235 5.38863 49.867 6.00467 49.586 6.69273C49.305 7.38078 49 8.12674 48.671 8.93012H53.7904C53.5574 8.31749 53.3209 7.70486 53.081 7.09125C52.8411 6.47814 52.6086 5.88935 52.3819 5.32391C52.1562 4.75897 51.9506 4.24025 51.7651 3.77068C51.5805 3.30062 51.4268 2.91572 51.3034 2.61597ZM53.996 15V14.7951C54.0371 14.7951 54.1365 14.782 54.2942 14.7548C54.4523 14.727 54.6158 14.6803 54.7876 14.6117C54.959 14.5436 55.1098 14.4482 55.24 14.3251C55.3702 14.2025 55.4348 14.0463 55.4348 13.8555C55.4348 13.7329 55.3967 13.5319 55.3222 13.2531C55.2469 12.9738 55.1406 12.6327 55.004 12.2312C54.866 11.8293 54.7083 11.3831 54.5306 10.8921C54.3529 10.4016 54.1605 9.89116 53.9549 9.35979H48.4864C48.2808 9.87705 48.0821 10.371 47.8897 10.841C47.6977 11.312 47.5063 11.785 47.3144 12.2614C47.0266 12.9967 46.8821 13.5154 46.8821 13.8146C46.8821 13.9918 46.9375 14.1382 47.0466 14.2536C47.1563 14.3703 47.2968 14.4657 47.4681 14.5397C47.6395 14.6151 47.825 14.6696 48.0238 14.7032C48.2226 14.7377 48.411 14.7684 48.5888 14.7951V15H44.2106V14.7752C44.566 14.7343 44.871 14.6389 45.1246 14.4886C45.3777 14.3392 45.5251 14.237 45.5672 14.182C45.6621 14.0876 45.8208 13.8623 46.0396 13.5081C46.2584 13.1543 46.5262 12.6298 46.841 11.9344C47.1299 11.294 47.451 10.5656 47.8074 9.74859C48.1633 8.93012 48.5305 8.08976 48.907 7.2241C49.2839 6.35892 49.658 5.48741 50.0281 4.60861C50.3987 3.72981 50.7477 2.90939 51.0767 2.14592L50.8711 1.6963C51.1179 1.58778 51.3406 1.45835 51.5394 1.30799C51.7376 1.1586 51.9124 1.00143 52.0637 0.837929C52.2135 0.674431 52.3408 0.518231 52.4441 0.367871C52.5474 0.217998 52.6257 0.0958606 52.6805 0H52.8446C53.2695 1.13135 53.6739 2.20431 54.0582 3.21887C54.4415 4.23393 54.8087 5.21102 55.1578 6.15163C55.5068 7.09125 55.8461 8.00023 56.1751 8.87952C56.5041 9.75783 56.833 10.6269 57.163 11.4848C57.3128 11.9076 57.4538 12.2585 57.5835 12.5373C57.7138 12.8166 57.8611 13.1339 58.0251 13.4876C58.053 13.5421 58.1152 13.638 58.2107 13.7742C58.3066 13.91 58.4334 14.0497 58.5916 14.1927C58.7492 14.3358 58.9441 14.4623 59.1776 14.5708C59.4101 14.6803 59.6843 14.7411 60 14.7548V15H53.996Z" fill="#A96A24"/>
<path fill-rule="evenodd" clip-rule="evenodd" d="M100.322 15H87.6316V14.7912C87.9606 14.7361 88.2873 14.6453 88.6097 14.5208C88.9326 14.3958 89.1863 14.2222 89.3708 13.9995C89.4371 13.9166 89.4922 13.7951 89.5383 13.6349C89.5849 13.4756 89.6212 13.2921 89.6475 13.0833C89.6734 12.8749 89.6965 12.6562 89.7167 12.427C89.737 12.1978 89.7459 11.9721 89.7459 11.7499C89.7459 11.5559 89.7497 11.2915 89.7563 10.9582C89.7624 10.6249 89.769 10.2603 89.7765 9.86491C89.7826 9.46906 89.7864 9.0628 89.7864 8.64612V7.43725V3.39644V2.66725C89.7864 2.41675 89.7765 2.1846 89.7563 1.96931C89.737 1.75403 89.7064 1.56354 89.6678 1.39687C89.6273 1.22921 89.5685 1.09775 89.4884 1.00053C89.3049 0.76441 89.0573 0.583849 88.7485 0.458845C88.4379 0.334336 88.1117 0.250504 87.7695 0.208836V0H94.0752V0.208836C93.9039 0.237111 93.7001 0.278283 93.4629 0.334336C93.2257 0.388902 93.0011 0.480175 92.7898 0.604187C92.5794 0.729687 92.3982 0.906776 92.2466 1.13545C92.0955 1.36512 92.0132 1.66722 92 2.04223C91.9864 2.52836 91.9769 2.97232 91.9699 3.37561C91.9633 3.7784 91.9572 4.17424 91.9506 4.56265C91.943 4.95155 91.9402 5.35484 91.9402 5.77102V7.16641V8.45861V9.56232C91.9402 9.92344 91.943 10.2955 91.9506 10.6774C91.9572 11.0589 91.9605 11.4865 91.9605 11.9582C91.9736 12.4032 91.9901 12.8263 92.0094 13.2291C92.0297 13.6324 92.0993 13.9305 92.217 14.125C92.2697 14.1944 92.3751 14.2634 92.5342 14.3328C92.6914 14.4028 92.8825 14.4618 93.1061 14.5104C93.3311 14.559 93.5749 14.6012 93.839 14.6354C94.1016 14.6701 94.3647 14.6875 94.6283 14.6875C94.7342 14.6875 94.9022 14.684 95.1333 14.6766C95.364 14.6701 95.6177 14.6562 95.8944 14.6354C96.1712 14.6146 96.4541 14.5833 96.7435 14.5417C97.0344 14.4995 97.2909 14.4444 97.515 14.375C98.0417 14.2222 98.4804 14.0203 98.8296 13.7708C99.1779 13.5208 99.4777 13.2326 99.7286 12.9067C99.9785 12.5798 100.19 12.2261 100.361 11.8441C100.532 11.4622 100.698 11.0624 100.855 10.6457L101.053 10.7087L100.322 15Z" fill="#A96A24"/>
<mask id="mask0_614_5225" style="mask-type:alpha" maskUnits="userSpaceOnUse" x="128" y="0" width="16" height="15">
<path fill-rule="evenodd" clip-rule="evenodd" d="M128.684 0H143.684V15H128.684V0Z" fill="white"/>
</mask>
<g mask="url(#mask0_614_5225)">
<path fill-rule="evenodd" clip-rule="evenodd" d="M140.894 4.95924C140.687 4.1161 140.374 3.35022 139.954 2.66259C139.535 1.97641 139.011 1.41852 138.384 0.989419C137.758 0.5608 137.017 0.346491 136.164 0.346491C135.298 0.346491 134.548 0.5608 133.915 0.989419C133.281 1.41852 132.761 1.97301 132.355 2.65335C131.947 3.33321 131.648 4.10589 131.454 4.96945C131.261 5.83398 131.164 6.70774 131.164 7.59219C131.164 8.51746 131.271 9.40823 131.484 10.2655C131.698 11.1222 132.015 11.8779 132.435 12.531C132.854 13.1837 133.381 13.7075 134.014 14.1021C134.648 14.4972 135.384 14.694 136.224 14.694C137.064 14.694 137.794 14.4768 138.415 14.0414C139.034 13.606 139.551 13.0442 139.964 12.3575C140.378 11.6709 140.687 10.8982 140.894 10.0409C141.101 9.1842 141.204 8.32696 141.204 7.46972C141.204 6.6397 141.101 5.80287 140.894 4.95924ZM143.085 10.4696C142.686 11.3948 142.141 12.1977 141.454 12.8775C140.768 13.5583 139.968 14.0812 139.055 14.4496C138.141 14.8165 137.171 15.0002 136.144 15.0002C135.131 15.0002 134.171 14.8199 133.265 14.4593C132.357 14.0992 131.564 13.5885 130.884 12.9285C130.204 12.2691 129.668 11.4794 129.274 10.5609C128.88 9.64295 128.684 8.63312 128.684 7.53047C128.684 6.36076 128.891 5.31011 129.304 4.37755C129.718 3.44596 130.274 2.65676 130.974 2.01043C131.675 1.36458 132.494 0.866957 133.435 0.520465C134.374 0.173488 135.365 0 136.404 0C137.537 0 138.554 0.203618 139.455 0.612312C140.354 1.02052 141.118 1.56771 141.745 2.25535C142.372 2.9425 142.851 3.73462 143.185 4.63268C143.518 5.53074 143.684 6.46913 143.684 7.44931C143.684 8.53738 143.485 9.5443 143.085 10.4696Z" fill="#A96A24"/>
</g>
</svg>
