<svg width="286" height="30" viewBox="0 0 286 30" fill="none" xmlns="http://www.w3.org/2000/svg">
<path fill-rule="evenodd" clip-rule="evenodd" d="M106.566 29.7693V29.3657C107.099 29.3137 107.622 29.1909 108.123 29.0005C108.451 28.8703 108.751 28.6778 109.007 28.4336C109.273 28.1877 109.414 27.8346 109.391 27.4727C109.362 27.0684 109.288 26.6688 109.17 26.2811C109.026 25.7238 108.814 25.0511 108.545 24.2632C108.276 23.4752 107.969 22.5816 107.584 21.6207C107.374 21.0946 107.178 20.5512 106.977 19.9952L106.977 19.9949L106.977 19.9948C106.812 19.5354 106.643 19.0676 106.46 18.5938H95.7555C95.3519 19.6123 94.958 20.5829 94.5832 21.4765L93.4493 24.2824C93.008 25.2533 92.7226 26.2878 92.6037 27.3477C92.5907 27.6684 92.7086 27.9806 92.9304 28.2126C93.1626 28.458 93.4443 28.6512 93.7568 28.7795C94.1033 28.9343 94.4683 29.0441 94.8427 29.1062L95.9573 29.2888V29.6924H87.3091V29.2504C87.9401 29.1844 88.5513 28.9915 89.106 28.6834C89.4202 28.5214 89.7111 28.3178 89.9708 28.078C90.3322 27.6639 90.654 27.2167 90.9317 26.7424C91.5173 25.7395 92.0435 24.7031 92.5076 23.6386C92.7279 23.1458 92.9569 22.6269 93.1973 22.0819C93.5758 21.2241 93.9829 20.3016 94.4295 19.3145L96.5915 14.3369C97.3282 12.6265 98.0617 10.9032 98.792 9.16716C99.5127 7.43751 100.205 5.81356 100.848 4.30491L100.445 3.42087C100.908 3.2147 101.346 2.95681 101.752 2.65214C102.126 2.36736 102.47 2.04541 102.78 1.69122C103.055 1.39168 103.306 1.07032 103.529 0.730298C103.731 0.432413 103.885 0.192184 103.991 0H104.317L104.609 0.781339L104.611 0.786175C105.339 2.7356 106.031 4.58957 106.7 6.36128C107.329 8.02467 107.925 9.62873 108.499 11.1735L108.499 11.1754L108.853 12.1268C109.535 13.9621 110.208 15.7783 110.852 17.5175C111.163 18.3582 111.476 19.1921 111.787 20.0204L111.79 20.0282L111.792 20.0326L111.793 20.0351L111.793 20.0357C112.124 20.9159 112.453 21.7897 112.773 22.6585C113.071 23.4945 113.34 24.1863 113.6 24.7437L113.643 24.8366L113.643 24.8368L113.644 24.8376C113.892 25.3701 114.165 25.9578 114.465 26.6655C114.522 26.7712 114.647 26.9634 114.83 27.2324C115.052 27.5315 115.303 27.8082 115.579 28.0588C115.924 28.3608 116.309 28.613 116.723 28.8083C117.232 29.0336 117.781 29.1545 118.337 29.1639V29.6539L106.566 29.7693ZM100.75 6.5406L100.749 6.54094C100.693 6.67509 100.633 6.81704 100.57 6.96666C100.401 7.3663 100.215 7.81239 100.01 8.30491L100.009 8.30711L100.009 8.30829L100.007 8.31224L100.005 8.31745C99.8274 8.74515 99.635 9.20776 99.4262 9.70528C98.9746 10.7815 98.4653 12.0019 97.908 13.3664L97.6146 14.0839L97.6142 14.0848C97.1449 15.232 96.6524 16.4357 96.1207 17.777H106.172C106.004 17.3369 105.831 16.8969 105.659 16.4568L105.659 16.4566L105.659 16.4564L105.659 16.4562C105.356 15.6857 105.054 14.9152 104.779 14.1447C104.542 13.4823 104.277 12.8342 104.017 12.2005L104.017 12.2001L104.017 12.1996L104.016 12.1989C103.802 11.6749 103.591 11.1608 103.404 10.6566L102.194 7.59126C101.829 6.65916 101.521 5.90004 101.281 5.31388C101.15 5.59056 100.976 6.00248 100.75 6.5398L100.75 6.5406ZM20.2081 29.3657V29.7693H32.5271V29.3657C31.8721 29.2901 31.2275 29.1418 30.6053 28.9236C30.0213 28.7135 29.5242 28.3145 29.1927 27.7898C28.9813 27.37 28.8757 26.9048 28.8852 26.4349C28.8276 25.7814 28.8276 25.0608 28.8276 24.2824V21.6111V19.276V6.08261C28.8276 5.93785 28.8254 5.79308 28.8233 5.64904V5.6489V5.64877V5.64865V5.64863C28.819 5.36255 28.8148 5.07932 28.8276 4.80459C28.8468 4.3914 28.8948 4.01664 28.9429 3.68032C28.9765 3.40444 29.0612 3.13723 29.1927 2.89236C29.4966 2.34088 29.9772 1.90766 30.5572 1.66239C31.1642 1.37754 31.8131 1.19258 32.479 1.11467V0.71108H20.3619V1.11467C20.9925 1.14334 21.6179 1.24327 22.226 1.41255C22.9196 1.65502 23.505 2.13495 23.8788 2.76745C24.1066 3.18468 24.2379 3.64766 24.2632 4.12234C24.2734 4.26764 24.2849 4.41226 24.2964 4.55585C24.3282 4.95354 24.3593 5.34328 24.3593 5.71746V8.09093V14.6444H8.44647V10.5701C8.44647 10.2418 8.44544 9.91251 8.44438 9.57841C8.44223 8.89543 8.44002 8.19247 8.44647 7.43751C8.451 6.90812 8.46404 6.41496 8.47659 5.94096V5.9409V5.94087V5.94084C8.49068 5.40823 8.50413 4.89981 8.50413 4.3914C8.51121 3.85366 8.64977 3.32582 8.90771 2.85393C9.12214 2.46813 9.42514 2.13878 9.79176 1.89301C10.1508 1.65787 10.5472 1.48564 10.9641 1.38372C11.3965 1.27802 11.8001 1.20115 12.1748 1.14349V0.739907H0V1.14349C0.639274 1.20888 1.26838 1.35084 1.87379 1.5663C2.4165 1.75488 2.89799 2.08695 3.26712 2.52722C3.44737 2.75857 3.57227 3.0281 3.63227 3.31517C3.71329 3.68637 3.77424 4.06168 3.81485 4.43944C3.85328 4.86225 3.8725 5.31388 3.8725 5.79434V17.4407V19.8045V21.9186V23.456V24.8013C3.8725 25.2914 3.83406 25.7046 3.78602 26.1082C3.73797 26.5117 3.68993 26.8673 3.62266 27.1748C3.58421 27.4117 3.49577 27.6377 3.36321 27.8378C2.9767 28.2673 2.49208 28.597 1.95066 28.7987C1.33398 29.0567 0.688857 29.2406 0.0288276 29.3465V29.75H11.8962V29.3465C11.2984 29.2823 10.7128 29.1335 10.1569 28.9044C9.60968 28.691 9.13582 28.3239 8.7924 27.8474C8.52869 27.3829 8.40208 26.8531 8.42725 26.3196V24.0518V15.4035H24.3401V21.8129V24.5611C24.3401 24.6647 24.3411 24.7766 24.3421 24.8906C24.3443 25.1255 24.3465 25.3695 24.3401 25.57C24.3305 25.8679 24.3112 26.2139 24.2824 26.531C24.2699 26.6683 24.2484 26.8002 24.2281 26.9251L24.2281 26.9251L24.2281 26.9252C24.2014 27.0887 24.1767 27.2404 24.1767 27.3766C24.1594 27.5432 24.1139 27.7056 24.0422 27.857C23.7047 28.3053 23.2389 28.6405 22.7065 28.8179C21.906 29.1251 21.0637 29.3098 20.2081 29.3657ZM198.41 29.7693H172.466V29.3657C173.148 29.2552 173.817 29.0782 174.464 28.8372C175.056 28.6541 175.592 28.3235 176.021 27.8762C176.18 27.6678 176.294 27.4291 176.357 27.1748C176.461 26.8224 176.539 26.4626 176.588 26.0985C176.636 25.695 176.684 25.2722 176.723 24.8301C176.768 24.396 176.791 23.9598 176.79 23.5233V21.9858V19.8718V17.5079V5.97691C176.79 5.48364 176.771 5.03201 176.732 4.62202C176.698 4.2466 176.637 3.8741 176.55 3.50735C176.487 3.22976 176.362 2.97009 176.184 2.74823C175.781 2.27211 175.261 1.90807 174.676 1.69122C174.032 1.44792 173.361 1.2865 172.677 1.21076V0.807172H185.544V1.21076C185.198 1.26841 184.785 1.34529 184.295 1.45099C183.813 1.55954 183.35 1.73758 182.92 1.97949C182.48 2.23487 182.102 2.5863 181.815 3.00767C181.48 3.53207 181.306 4.14365 181.316 4.76616C181.316 5.40325 181.295 5.98544 181.275 6.53232L181.275 6.53508C181.265 6.81206 181.255 7.07999 181.248 7.34142C181.236 7.8611 181.24 8.37649 181.244 8.88761V8.8885L181.244 8.89167C181.246 9.1447 181.248 9.39669 181.248 9.64762V11.9827V19.3337V21.4861V23.9749C181.248 24.6823 181.282 25.2936 181.315 25.8912C181.326 26.0729 181.336 26.2534 181.345 26.4349C181.346 27.038 181.494 27.6318 181.777 28.1645C181.956 28.3486 182.177 28.4871 182.421 28.5681C182.797 28.7194 183.186 28.8352 183.583 28.914C184.045 29.0101 184.544 29.087 185.083 29.1543C185.618 29.223 186.157 29.2583 186.697 29.26H187.725L189.282 29.1735C189.789 29.1735 190.305 29.0964 190.828 29.0182L191.011 28.9909C191.544 28.9272 192.071 28.8211 192.587 28.6738C193.541 28.4279 194.449 28.0322 195.278 27.5015C196.005 27.0211 196.656 26.4349 197.209 25.7622C197.719 25.1309 198.152 24.4405 198.497 23.7059C198.843 22.966 199.179 22.1876 199.506 21.3804L199.909 21.5054L198.41 29.7693ZM284.009 21.0057C283.238 22.8067 282.122 24.439 280.723 25.8103C279.342 27.152 277.709 28.2069 275.918 28.914C272.158 30.362 267.994 30.362 264.233 28.914C262.448 28.2323 260.815 27.2035 259.429 25.8871C258.041 24.5626 256.936 22.9707 256.181 21.2075C255.353 19.311 254.934 17.2614 254.951 15.1921C254.915 13.0477 255.341 10.9207 256.2 8.95576C256.988 7.17908 258.137 5.58551 259.573 4.27609C261.018 2.97445 262.706 1.97182 264.541 1.32607C266.461 0.637728 268.487 0.289782 270.527 0.297885C272.643 0.263398 274.742 0.675983 276.687 1.50864C278.43 2.2704 280.002 3.37494 281.309 4.75655C282.565 6.12161 283.544 7.71741 284.192 9.45544C284.865 11.2361 285.207 13.125 285.201 15.0288C285.228 17.0827 284.822 19.1194 284.009 21.0057ZM279.589 10.1089C279.211 8.51246 278.586 6.98522 277.734 5.58294C276.928 4.26875 275.85 3.14181 274.573 2.27738C273.232 1.39322 271.652 0.943611 270.047 0.989746C268.438 0.947876 266.853 1.39336 265.502 2.26777C264.219 3.12325 263.145 4.25626 262.36 5.58294C261.505 6.99969 260.891 8.54863 260.543 10.1665C260.151 11.865 259.955 13.6027 259.957 15.3459C259.949 17.1276 260.166 18.9032 260.601 20.6309C260.985 22.224 261.635 23.7411 262.523 25.1184C263.337 26.3784 264.424 27.4392 265.704 28.2222C267.052 29.0207 268.596 29.4268 270.162 29.3945C271.735 29.4323 273.28 28.9788 274.582 28.0973C275.859 27.2159 276.934 26.0726 277.734 24.7437C278.593 23.3222 279.225 21.7759 279.608 20.1601C280.019 18.4968 280.229 16.7901 280.233 15.0768C280.221 13.4008 280.004 11.7326 279.589 10.1089Z" fill="#A96A24"/>
</svg>
