<svg width="299" height="20" viewBox="0 0 299 20" fill="none" xmlns="http://www.w3.org/2000/svg">
<path fill-rule="evenodd" clip-rule="evenodd" d="M113.043 5.71497C112.902 4.65627 112.137 4.16764 110.748 4.16764C109.36 4.16764 108.997 4.51375 108.997 5.1449C108.994 5.55588 109.209 5.93704 109.561 6.14252C110.02 6.46255 110.541 6.6779 111.091 6.77367C111.542 6.92099 112.025 7.03634 112.471 7.14284C112.642 7.18352 112.807 7.22291 112.963 7.2623C114.586 7.5887 116.114 8.28498 117.431 9.29826C118.397 10.1998 118.907 11.4944 118.82 12.8205C118.883 14.1132 118.483 15.3856 117.693 16.4038C116.943 17.3625 115.927 18.0717 114.774 18.4397C113.505 18.814 112.191 19.0059 110.869 19.0098C108.949 19.0601 107.066 18.4659 105.515 17.3199C104.145 16.2875 103.303 14.6892 103.22 12.963H108.655C108.684 13.5947 109.056 14.1585 109.621 14.4289C110.131 14.7194 110.707 14.867 111.292 14.8564C112.62 14.8564 113.305 14.3678 113.446 13.6552C113.587 12.9426 113.244 12.7594 112.681 12.4744C111.857 12.0909 110.993 11.804 110.104 11.6193C108.897 11.303 107.713 10.9017 106.562 10.418C105.69 10.022 104.939 9.39615 104.388 8.60603C103.803 7.68553 103.515 6.6044 103.562 5.51137C103.578 3.94693 104.325 2.48222 105.575 1.56161C107.166 0.447338 109.079 -0.0972935 111.01 0.0142821C112.15 -0.0155007 113.284 0.178081 114.351 0.584351C115.368 0.921387 116.278 1.52564 116.988 2.33528C117.71 3.328 118.168 4.49183 118.317 5.71497H113.043ZM5.63605 0.421474H0V18.399H5.63605V11.4564H10.9299V18.399H16.5861V0.421474H10.9299V6.52935H5.63605V0.421474ZM27.4355 5.83713V0.421474H24.5571L18.5185 18.399H24.0136L24.6577 16.0169H27.4556V12.2911H25.6843L27.4355 5.83713ZM30.173 16.0169H27.4959V12.2911H29.2068L27.4556 5.95928V0.421474H30.3139L35.9298 16.872V18.399H30.8775L30.173 16.0169ZM35.95 18.399H36.4934L35.95 16.9266V16.872H35.9298L35.95 16.9266V18.399ZM35.9298 0.421474H35.3864L35.9298 1.9688L41.3042 18.399H46.9403L52.9789 0.421474H47.2221L44.1625 12.3726L41.1029 0.421474H35.9298ZM93.9611 0.421474H88.3049V18.399H101.69V14.1846H93.9611V0.421474ZM72.4434 0.421474H78.0795V14.1846H85.8089V18.399H72.4434V0.421474ZM69.3234 0.421474H55.334V18.3379H69.6858V14.1235H60.97V11.3139H68.0151V7.09942H60.97V4.49339H69.3234V0.421474Z" fill="#332B29"/>
<path fill-rule="evenodd" clip-rule="evenodd" d="M297.633 13.2301C297.166 14.3534 296.48 15.3732 295.616 16.2304C294.745 17.1065 293.701 17.7923 292.551 18.2439C291.369 18.7066 290.109 18.939 288.84 18.9286C287.584 18.9388 286.337 18.7063 285.169 18.2439C284.027 17.7883 282.99 17.1029 282.124 16.2304C281.258 15.3984 280.572 14.3978 280.108 13.2905C279.598 12.0942 279.344 10.8049 279.361 9.50495C279.327 8.12144 279.596 6.74716 280.148 5.47777C280.64 4.34975 281.369 3.34035 282.286 2.51778C283.194 1.69877 284.256 1.06897 285.411 0.665278C286.633 0.220479 287.923 -0.00450119 289.223 0.000792791C290.56 -0.0163351 291.885 0.244237 293.115 0.765958C295.327 1.72026 297.048 3.54062 297.875 5.79994C298.297 6.92655 298.509 8.12086 298.5 9.32373C298.506 10.6741 298.21 12.0088 297.633 13.2301ZM294.85 6.34361C294.605 5.33108 294.196 4.36527 293.64 3.48431C293.127 2.67048 292.438 1.98227 291.623 1.47072C289.873 0.395501 287.666 0.395501 285.916 1.47072C285.104 1.98597 284.415 2.67344 283.899 3.48431C283.355 4.37919 282.966 5.35955 282.749 6.38388C282.508 7.4545 282.386 8.54852 282.386 9.6459C282.385 10.7723 282.521 11.8947 282.79 12.9885C283.036 13.9942 283.445 14.9532 284 15.8276C284.513 16.641 285.202 17.3291 286.016 17.8412C286.868 18.3525 287.847 18.611 288.84 18.5863C289.837 18.606 290.816 18.3177 291.643 17.7607C292.45 17.2395 293.138 16.5532 293.66 15.7471C294.205 14.8485 294.607 13.8701 294.85 12.8475C295.106 11.7996 295.235 10.7246 295.233 9.6459C295.248 8.53324 295.12 7.42324 294.85 6.34361ZM144.648 17.5593C145.226 17.1215 145.695 16.5565 146.019 15.9082C146.466 15.2563 146.737 14.5003 146.805 13.7134C146.841 12.6284 146.507 11.5635 145.858 10.693C145.15 9.84197 144.222 9.20118 143.175 8.84047L142.227 8.51829L141.36 8.21625L140.473 7.93435L139.525 7.5719C138.734 7.30013 138.012 6.86048 137.408 6.2832C136.852 5.6993 136.56 4.91316 136.601 4.10852C136.586 3.57769 136.682 3.04955 136.883 2.55806C137.069 2.12426 137.352 1.7386 137.71 1.43044C138.06 1.11817 138.472 0.884672 138.92 0.745822C139.408 0.582503 139.919 0.500856 140.433 0.504191C141.056 0.497955 141.672 0.643065 142.227 0.927046C142.77 1.19665 143.267 1.55001 143.7 1.97411C144.129 2.42335 144.502 2.92382 144.809 3.46417C145.122 3.99878 145.392 4.55768 145.616 5.13545H145.898V0.403511H145.616L145.152 1.02773C144.99 1.32976 144.849 1.32976 144.849 1.32976L144.547 1.1284C144.295 0.969258 144.032 0.827959 143.76 0.70555C143.321 0.537129 142.869 0.402498 142.409 0.302832C141.748 0.149373 141.07 0.0816946 140.392 0.101472C139.601 0.0937013 138.813 0.202256 138.053 0.423647C137.319 0.608483 136.632 0.94457 136.036 1.41031C135.465 1.84985 135.003 2.41482 134.685 3.06145C134.328 3.80156 134.156 4.61655 134.181 5.43749C134.171 5.96135 134.267 6.48178 134.463 6.96782C134.641 7.44313 134.885 7.89066 135.189 8.2968C135.499 8.69011 135.858 9.04201 136.258 9.34386C136.659 9.62868 137.092 9.86524 137.549 10.0486C137.678 10.0962 137.803 10.153 137.922 10.2073C138.157 10.3139 138.37 10.4111 138.557 10.4111L139.364 10.693L140.231 10.995L141.3 11.3776C141.693 11.521 142.077 11.6891 142.449 11.881C142.794 12.0575 143.107 12.2887 143.377 12.5656C143.648 12.8271 143.861 13.1427 144.002 13.4919C144.171 13.886 144.254 14.3117 144.244 14.7403C144.283 15.8033 143.847 16.8287 143.054 17.5392C142.196 18.2508 141.103 18.617 139.989 18.5661C139.522 18.5609 139.058 18.4793 138.618 18.3245C138.222 18.2114 137.837 18.0631 137.468 17.8815C137.144 17.6904 136.84 17.4678 136.561 17.217C136.234 16.9098 135.937 16.5727 135.673 16.2102C135.388 15.8161 135.125 15.406 134.887 14.9819C134.655 14.5493 134.459 14.098 134.302 13.6328H134.04V18.7071H134.262L134.725 18.1231C134.907 17.9218 135.068 17.8211 135.068 17.8211C135.198 17.8626 135.32 17.9237 135.431 18.0023C135.717 18.1582 136.013 18.2928 136.319 18.405C136.798 18.5683 137.29 18.6896 137.791 18.7675C138.504 18.8806 139.226 18.9344 139.949 18.9286C140.854 18.9328 141.756 18.8177 142.631 18.5863C143.364 18.3788 144.049 18.03 144.648 17.5593ZM177.902 4.24947C178.084 4.57165 178.245 4.89382 178.386 5.19586L178.528 5.07505L177.701 0.101472L176.571 0.403511C176.113 0.490632 175.647 0.537793 175.18 0.544463H164.149H162.414H160.962L159.873 0.343104L159.107 5.17573H159.349C159.46 4.84765 159.602 4.53078 159.773 4.22934C159.961 3.90716 160.142 3.60512 160.317 3.32322L160.882 2.55806C161.024 2.36046 161.186 2.17825 161.366 2.01439C161.689 1.69323 162.082 1.45189 162.515 1.30963C163.039 1.15343 163.582 1.07208 164.129 1.068H167.355V12.5656V13.8543V14.8007V15.6464C167.355 15.7419 167.367 15.8374 167.378 15.9314C167.4 16.1147 167.422 16.2921 167.355 16.4518C167.254 16.6935 167.254 16.915 167.254 17.1163C167.212 17.2677 167.143 17.4106 167.053 17.5392C166.744 17.923 166.331 18.2097 165.863 18.3648C165.44 18.4829 165.008 18.5704 164.572 18.6265V18.8883H172.881V18.6265C172.451 18.5551 172.027 18.4542 171.61 18.3245C171.171 18.1999 170.787 17.9301 170.521 17.5593C170.368 17.2597 170.286 16.9291 170.279 16.5928V15.1833V5.11532V2.81982V1.08813H173.506C174.05 1.08976 174.592 1.15738 175.119 1.28949C175.554 1.40794 175.95 1.6369 176.269 1.95398C176.449 2.11784 176.611 2.30006 176.753 2.49765L177.338 3.30309C177.542 3.60863 177.731 3.92452 177.902 4.24947ZM209.584 1.14854C209.199 1.41773 208.904 1.79666 208.737 2.23588C208.664 2.4233 208.617 2.61972 208.596 2.81982C208.596 3.10173 208.596 3.40376 208.475 3.76621C208.395 4.00713 208.421 4.25694 208.448 4.50974C208.462 4.63726 208.475 4.76554 208.475 4.89382V6.08184V8.53843C208.475 9.44454 208.475 10.552 208.374 11.5991V12.8274C208.347 13.3577 208.266 13.884 208.132 14.398C207.985 14.9723 207.768 15.5268 207.487 16.0491C207.158 16.6246 206.728 17.1362 206.217 17.5593C205.618 18.0396 204.934 18.4018 204.2 18.6265C203.176 18.9077 202.116 19.0366 201.054 19.0091C200.012 19.0342 198.972 18.9053 197.968 18.6265C197.235 18.4191 196.55 18.0702 195.952 17.5996C195.45 17.2044 195.026 16.7197 194.701 16.1699C194.416 15.6897 194.193 15.1755 194.036 14.6396C193.898 14.1944 193.81 13.7351 193.774 13.2704V12.3441V10.4715V7.93435V3.62526V2.75942C193.748 2.52218 193.708 2.28679 193.653 2.05466C193.615 1.87306 193.54 1.70148 193.431 1.55126C193.198 1.26613 192.891 1.05023 192.544 0.927046C192.159 0.791111 191.76 0.703187 191.354 0.665278V0.403511H198.957V0.665278C198.699 0.698055 198.443 0.745112 198.19 0.80623C197.935 0.880379 197.691 0.988757 197.464 1.1284C197.227 1.27803 197.033 1.48607 196.9 1.73248C196.732 2.02748 196.642 2.35993 196.637 2.69901V3.86689V11.0756V12.2434C196.652 13.0775 196.788 13.905 197.041 14.7C197.27 15.3885 197.633 16.025 198.11 16.5727C198.576 17.0978 199.155 17.5108 199.804 17.7808C200.527 18.0748 201.302 18.2187 202.082 18.2037C202.915 18.2171 203.745 18.1016 204.543 17.8614C205.154 17.671 205.723 17.3632 206.217 16.9552C206.656 16.5782 207.019 16.1201 207.285 15.6061C207.555 15.09 207.758 14.542 207.89 13.9751C208.012 13.3908 208.093 12.7987 208.132 12.2032V10.4312V6.08184V5.03478V4.02798V3.12186C208.11 2.88749 208.055 2.65723 207.971 2.43724C207.81 1.97314 207.507 1.57153 207.104 1.28949C206.543 0.939583 205.907 0.7258 205.249 0.665278V0.403511H211.581V0.665278C210.882 0.623893 210.187 0.792195 209.584 1.14854ZM243.606 12.6864C243.338 13.585 242.915 14.43 242.355 15.1833C241.857 15.8699 241.235 16.4573 240.52 16.915C239.828 17.3714 239.083 17.7433 238.302 18.0224C237.51 18.2929 236.692 18.4818 235.862 18.5863C235.061 18.7052 234.252 18.7658 233.442 18.7675H224.125V18.5057C224.553 18.4484 224.973 18.3403 225.375 18.1835C225.715 18.0356 226.023 17.8237 226.283 17.5593C226.382 17.4384 226.445 17.2917 226.464 17.1365C226.464 16.915 226.464 16.6935 226.585 16.4317C226.665 16.2586 226.639 16.0856 226.613 15.9066L226.613 15.9065C226.599 15.8149 226.585 15.7217 226.585 15.6263V14.7806V13.8946V12.5656V3.62526C226.607 3.33705 226.607 3.04763 226.585 2.75942C226.599 2.5247 226.599 2.28937 226.585 2.05466C226.542 1.87143 226.459 1.69972 226.343 1.55126C226.107 1.25569 225.793 1.03239 225.436 0.90691C225.043 0.780161 224.637 0.699081 224.226 0.665278V0.403511H233.825C234.389 0.373401 234.955 0.373401 235.519 0.403511C236.082 0.443053 236.641 0.523814 237.193 0.645143C237.768 0.768252 238.329 0.950445 238.867 1.18881C239.583 1.49574 240.261 1.88787 240.883 2.3567C241.508 2.83774 242.058 3.40761 242.517 4.04811C243.011 4.74217 243.393 5.51017 243.646 6.32347C243.942 7.27491 244.085 8.26718 244.07 9.26332C244.102 10.4219 243.945 11.578 243.606 12.6864ZM240.46 6.5047C240.176 5.59608 239.747 4.73929 239.189 3.96757C238.642 3.18211 237.959 2.50025 237.173 1.95398C236.438 1.43614 235.598 1.0856 234.712 0.927046L233.603 0.765958H232.091H231.425H230.719H230.074H229.61C229.61 1.12236 229.584 1.54631 229.554 2.02809L229.554 2.02838C229.514 2.66253 229.469 3.39686 229.469 4.2092V9.44454V12.4247V14.5792V15.3645V16.1901C229.499 16.4298 229.553 16.6659 229.63 16.8948C229.683 17.0665 229.772 17.2246 229.892 17.358C230.247 17.7031 230.696 17.9345 231.183 18.0224C231.67 18.1065 232.162 18.1536 232.655 18.1634H233.966C234.396 18.1133 234.822 18.0258 235.237 17.9016C236.928 17.4424 238.374 16.3449 239.27 14.841C240.237 13.1304 240.712 11.1861 240.641 9.22305C240.724 8.31303 240.663 7.39572 240.46 6.5047ZM257.763 18.7675V18.5057C258.17 18.4412 258.569 18.3332 258.953 18.1835C259.304 18.0279 259.62 17.8017 259.88 17.5191C259.972 17.3861 260.034 17.235 260.062 17.0761C260.078 16.8548 260.078 16.6328 260.062 16.4116C260.083 16.1435 260.083 15.8742 260.062 15.6061V14.7806V13.814V12.4851V10.9749V3.62526V2.75942C260.046 2.52092 260.006 2.28472 259.941 2.05466C259.912 1.87039 259.836 1.69683 259.719 1.55126C259.486 1.26613 259.179 1.05023 258.832 0.927046C258.454 0.793097 258.061 0.705205 257.662 0.665278V0.403511H265.285V0.665278C264.893 0.716127 264.507 0.810684 264.136 0.947182C263.724 1.07827 263.383 1.36836 263.188 1.75262C263.033 2.10161 262.95 2.47838 262.946 2.8601V4.10852V5.35695V6.62551V15.1631V16.5928C262.931 16.9316 263.015 17.2673 263.188 17.5593C263.43 17.8797 263.769 18.1128 264.156 18.2238C264.54 18.3636 264.939 18.4582 265.346 18.5057V18.7675H257.763Z" fill="#332B29"/>
</svg>
