<svg width="70" height="94" viewBox="0 0 70 94" fill="none" xmlns="http://www.w3.org/2000/svg">
<path d="M69.0127 47.4859C66.9571 43.8778 62.0616 42.4274 55.0891 43.203C59.1984 38.4711 61.5152 32.3451 61.5152 26.0084C61.5152 11.6651 50.0068 0 35.864 0C21.7213 0 10.2178 11.6669 10.2178 26.0084C10.2178 33.2862 13.2653 40.2874 18.5786 45.2138L18.6323 45.2637C18.7862 45.3915 18.9401 45.5286 19.0966 45.6682L19.2763 45.8243C22.0089 48.3486 23.857 51.6873 24.5967 55.3006C19.8274 58.3625 15.6741 61.5943 12.2625 64.8216C7.58878 59.9219 5.00347 55.3741 4.69061 52.0473C5.12707 52.149 5.57259 52.2132 6.03686 52.2132C9.36691 52.2132 12.0755 49.466 12.0755 46.0873C12.0755 42.7107 9.36625 39.9642 6.03686 39.9642C2.70681 39.9642 0 42.7134 0 46.09C0 47.8078 0.70481 49.3552 1.82932 50.4699C1.36504 55.013 4.49855 60.8924 10.2062 66.8739C3.05659 74.3196 0.00893835 81.5365 2.72088 86.2959C4.41248 89.2673 8.07806 90.8055 13.2724 90.8055C14.6283 90.8055 16.1142 90.6659 17.6706 90.458C18.6341 92.5451 20.711 94 23.1288 94C26.4588 94 29.1674 91.258 29.1674 87.8768C29.1674 84.5027 26.4581 81.7536 23.1288 81.7536C19.8995 81.7536 17.2743 84.3494 17.1204 87.5858C11.0136 88.3929 6.69685 87.4271 5.21995 84.832C3.42308 81.6803 5.85946 75.6587 12.2758 68.9393C16.5319 72.9873 21.8897 77.0125 28.0494 80.618C36.7179 85.6954 45.644 89.1522 53.1808 90.3546C55.078 90.6575 56.8394 90.8064 58.4637 90.8064C63.6553 90.8064 67.3282 89.2636 69.0131 86.2967C71.72 81.536 68.675 74.3178 61.5254 66.8698C68.9246 59.148 71.6592 52.1298 69.0131 47.4864L69.0127 47.4859ZM6.03858 42.8955C7.77669 42.8955 9.19085 44.3294 9.19085 46.0919C9.19085 47.8543 7.77669 49.2909 6.03858 49.2909C4.30047 49.2909 2.88631 47.855 2.88631 46.0919C2.88567 44.3294 4.29983 42.8955 6.03858 42.8955ZM23.1283 84.6785C24.8664 84.6785 26.2832 86.1098 26.2832 87.8775C26.2832 89.6453 24.8691 91.0766 23.1283 91.0766C21.3902 91.0766 19.9761 89.6453 19.9761 87.8775C19.9761 86.1098 21.3902 84.6785 23.1283 84.6785ZM66.5132 48.9482C68.4103 52.2725 65.6823 58.2849 59.4475 64.8008C56.0385 61.5782 51.8963 58.351 47.1339 55.2943C47.7896 52.0789 49.3435 49.1021 51.5956 46.7129C59.2308 45.1223 64.8007 45.9386 66.513 48.948L66.5132 48.9482ZM27.856 67.7373V65.5016H43.8843V67.7373H27.856ZM27.856 62.5701V60.3316H43.8843V62.5701H27.856ZM21.0005 43.4687C20.8324 43.3199 20.6669 43.173 20.5014 43.0333C15.7999 38.6588 13.1046 32.4567 13.1046 26.0116C13.1046 13.2845 23.3154 2.93053 35.8656 2.93053C48.4145 2.93053 58.6282 13.2842 58.6282 26.0116C58.6282 32.4567 55.9285 38.6581 51.2218 43.035C51.0376 43.1911 50.8533 43.3589 50.669 43.5274L50.5222 43.6625C46.6606 47.2189 44.3011 52.1638 43.9325 57.4046H27.802C27.4308 52.173 25.0791 47.2307 21.1987 43.646L21.0005 43.4687ZM14.3385 66.8855C16.8072 64.55 19.7403 62.1536 23.1305 59.7873V60.3289H24.9676V62.5673H23.1287V65.4916H24.9676V67.7321H23.1287V70.6616H48.6044V67.7373H46.7679V65.4968H48.6044V62.5725H46.7679V60.3341H48.6044V59.7925C51.9809 62.1489 54.9024 64.5343 57.3641 66.8625C53.1521 70.8562 47.9836 74.7181 42.2435 78.0823C40.1156 79.3248 37.9688 80.4577 35.8478 81.4846C33.7339 80.4552 31.6105 79.3222 29.4961 78.0823C23.3455 74.478 18.2747 70.6234 14.3381 66.8855H14.3385ZM66.5132 84.8304C64.9593 87.5559 60.2616 88.5165 53.6306 87.4544C49.2324 86.7541 44.318 85.2324 39.2472 83.0372C40.7286 82.2727 42.2106 81.4754 43.6804 80.6165C49.6609 77.1146 55.0415 73.0783 59.4306 68.9096C65.8691 75.6407 68.31 81.6689 66.513 84.8306L66.5132 84.8304Z" fill="#A96A24"/>
<path d="M30.2067 72.8967H41.5308V75.8255H30.2067V72.8967Z" fill="#A96A24"/>
<path d="M34.489 38.9087L37.2448 39.782L41.9438 24.5469H33.7214L37.2448 13.1115L34.489 12.2388L29.7939 27.4739H38.0124L34.489 38.9087Z" fill="#A96A24"/>
</svg>
