<svg width="83" height="82" viewBox="0 0 83 82" fill="none" xmlns="http://www.w3.org/2000/svg">
<path d="M62.9944 60.8084L61.3005 64.9502C60.8297 65.9856 60.0766 66.8326 58.9473 67.3034C57.9118 67.7741 56.688 67.7741 55.6525 67.3034L53.0169 66.174C51.4168 68.2448 49.6283 70.1274 47.5575 71.6334L48.6868 74.269C49.1576 75.3045 49.1576 76.5283 48.6868 77.5638C48.216 78.5993 47.4629 79.4462 46.3336 79.917L42.1918 81.611C41.6272 81.7994 41.1564 81.8933 40.5917 81.8933C40.0271 81.8933 39.4624 81.7994 38.9916 81.611C37.9562 81.1402 37.1092 80.3871 36.6384 79.2578L35.5091 76.7162C32.9675 77.0924 30.3319 77.0924 27.6965 76.7162L26.5672 79.3518C25.6256 81.5165 23.1786 82.5519 21.0138 81.705L16.872 80.011C15.8365 79.5402 14.9896 78.7871 14.5188 77.6578C14.048 76.6224 14.048 75.3986 14.5188 74.363L15.6481 71.7274C13.5773 70.1273 11.6947 68.3388 10.1887 66.268L7.64708 67.3034C5.4823 68.245 2.94068 67.2095 2.0937 64.9502L0.399734 60.8084C-0.541814 58.6437 0.493625 56.102 2.75293 55.2551L5.38851 54.1257C5.01229 51.5841 5.01229 48.9485 5.38851 46.3131L2.75293 45.1838C0.588158 44.2422 -0.447249 41.7952 0.399734 39.6304L2.0937 35.4886C2.56447 34.4532 3.31756 33.6062 4.4469 33.1354C5.48234 32.6646 6.70613 32.6646 7.74171 33.1354L10.3773 34.2647C11.9774 32.1939 13.7659 30.3114 15.8367 28.8053L14.7074 26.1698C14.2366 25.1343 14.2366 23.9105 14.7074 22.8749C15.1781 21.8395 15.9312 20.9926 17.0606 20.5217L21.2024 18.8278C22.2378 18.357 23.4616 18.357 24.4972 18.8278C25.5326 19.2986 26.3796 20.0516 26.8504 21.181L28.4505 24.9458C28.8267 25.7928 28.3566 26.7344 27.6035 27.0166C26.7565 27.3928 25.8149 26.9227 25.5327 26.1696L23.9326 22.4048C23.8387 22.1225 23.6502 21.934 23.3679 21.8401C23.0856 21.7462 22.8032 21.7462 22.5209 21.8401L18.3791 23.5341C18.0968 23.628 17.9083 23.8164 17.8144 24.0988C17.7205 24.3811 17.7205 24.6634 17.8144 24.9458L19.4145 28.7105C19.6969 29.4636 19.4145 30.2167 18.8499 30.6876C16.3082 32.3815 14.1435 34.547 12.3549 37.1825C11.8841 37.8418 11.131 38.0295 10.3778 37.7472L6.61306 36.1471C6.0484 35.9587 5.48373 36.1471 5.20142 36.7118L3.31768 40.9474C3.12924 41.512 3.31768 42.0767 3.88235 42.359L7.64713 43.9591C8.40024 44.2414 8.77646 44.9946 8.58867 45.7477C8.02401 48.7601 8.02401 51.8657 8.58867 54.8781C8.77712 55.6312 8.30634 56.3843 7.64713 56.6667L3.88235 58.2668C3.31768 58.4552 3.03535 59.1138 3.31768 59.6785L5.01165 63.8202C5.20009 64.3849 5.85865 64.5734 6.4233 64.3849L10.1881 62.7848C10.9412 62.5025 11.6943 62.7848 12.1651 63.3495C13.8591 65.8911 16.0245 68.0559 18.6601 69.8445C19.3193 70.3153 19.5071 71.0683 19.2248 71.8215L17.6247 75.5863C17.5308 75.8686 17.5308 76.1509 17.6247 76.4333C17.7186 76.7156 17.907 76.9041 18.1893 76.9979L22.3311 78.6919C22.8958 78.8804 23.4605 78.6919 23.7428 78.1272L25.3429 74.3625C25.6252 73.6094 26.3783 73.2331 27.1315 73.4209C30.1439 73.9856 33.2494 73.9856 36.2619 73.4209C37.015 73.2325 37.7681 73.7032 38.0505 74.3625L39.6506 78.1272C39.7445 78.4096 39.9329 78.598 40.2152 78.6919C40.4976 78.7858 40.7799 78.7858 41.0622 78.6919L45.204 76.9979C45.4864 76.9041 45.6748 76.7156 45.7687 76.4333C45.8626 76.1509 45.8626 75.8686 45.7687 75.5863L44.1686 71.8215C43.8863 71.0684 44.1686 70.3153 44.7333 69.8445C47.2749 68.1505 49.4397 65.9851 51.2283 63.3495C51.699 62.6903 52.4521 62.5025 53.2053 62.7848L56.9701 64.3849C57.5347 64.5734 58.0994 64.3849 58.3817 63.8202L60.0757 59.6785C60.2641 59.1138 60.0757 58.5491 59.511 58.2668L55.7462 56.6667C54.8992 56.2905 54.5224 55.349 54.8992 54.5959C55.2755 53.7489 56.217 53.372 56.97 53.7489L60.7348 55.349C62.9003 56.196 63.9357 58.6438 62.9947 60.8084L62.9944 60.8084ZM18.0954 50.3602C18.1893 57.7959 24.2134 63.8201 31.65 63.8201H31.7439C39.1797 63.7262 45.2039 57.6075 45.2039 50.1718C45.2039 49.3248 44.4508 48.5717 43.6038 48.5717C42.7568 48.5717 42.0037 49.3248 42.0037 50.1718C42.0037 55.9136 37.3913 60.5262 31.7439 60.6199H31.65C26.002 60.6199 21.3903 56.0075 21.2956 50.3602C21.2956 44.6184 25.9081 40.0058 31.5554 39.912C32.4024 39.912 33.1555 39.1589 33.1555 38.3119C33.1555 37.4649 32.4024 36.7118 31.5554 36.7118C24.1196 36.8057 18.0954 42.9244 18.0954 50.3602ZM68.1715 24.3809C68.1715 29.8403 63.7475 34.2645 58.2879 34.2645C52.8283 34.2645 48.4043 29.8405 48.4043 24.3809C48.4043 18.9215 52.8283 14.4973 58.2879 14.4973C63.7475 14.4973 68.1715 18.9213 68.1715 24.3809ZM64.9706 24.3809C64.9706 20.7099 61.9582 17.6975 58.2872 17.6975C54.6162 17.6975 51.6038 20.7099 51.6038 24.3809C51.6038 28.0519 54.6162 31.0643 58.2872 31.0643C61.9589 31.0636 64.9706 28.0519 64.9706 24.3809ZM82.6667 22.7808V26.0756C82.6667 28.0526 81.0666 29.6526 79.0897 29.6526H77.3957C76.9249 31.3466 76.2663 32.8528 75.4187 34.359L76.6425 35.5829C77.3017 36.2421 77.678 37.183 77.678 38.1245C77.678 39.0661 77.3017 39.9131 76.6425 40.6661L74.3833 42.8296C73.7241 43.4888 72.7832 43.865 71.8417 43.865C70.9001 43.865 69.9593 43.4888 69.3 42.8296L68.0762 41.6057C66.57 42.4527 64.97 43.1119 63.3698 43.5827V45.2767C63.3698 47.2537 61.7697 48.8537 59.7928 48.8537H56.4979C54.5209 48.8537 52.9209 47.2536 52.9209 45.2767V43.5827C51.2269 43.1119 49.7207 42.4534 48.2145 41.6057L47.1804 42.8296C46.5212 43.4888 45.5803 43.865 44.6388 43.865C43.6972 43.865 42.8502 43.4888 42.0972 42.8296L39.8379 40.5703C38.4263 39.1587 38.4263 36.8993 39.8379 35.5815L41.0618 34.3577C40.2148 32.8515 39.5556 31.2515 39.0848 29.6513H37.3908C35.4138 29.6513 33.8138 28.0512 33.8138 26.0743V22.7795C33.8138 20.8024 35.4139 19.2024 37.3908 19.2024H39.0848C39.5555 17.5085 40.2141 16.0022 41.0618 14.496L39.8379 13.2722C38.4263 11.8605 38.4263 9.60118 39.8379 8.28339L42.0972 6.02415C42.7564 5.36494 43.6973 4.98871 44.6388 4.98871C45.5803 4.98871 46.4274 5.36494 47.1804 6.02415L48.4043 7.24801C49.9105 6.40101 51.5105 5.74182 53.1107 5.27099V3.57703C53.1107 1.60001 54.7108 0 56.6877 0H59.9825C61.9595 0 63.5595 1.60009 63.5595 3.57703L63.5589 5.17843C65.2528 5.6492 66.7591 6.30776 68.2653 7.15545L69.4891 5.93158C70.1484 5.27237 71.0892 4.89615 72.0308 4.89615C72.9723 4.89615 73.8194 5.27237 74.5724 5.93158L76.8316 8.19082C77.4908 8.85004 77.8671 9.79091 77.8671 10.7324C77.8671 11.674 77.4908 12.521 76.8316 13.2741L75.6078 14.4979C76.4548 16.0041 77.1139 17.6041 77.5848 19.2043H79.2787C81.1605 19.2037 82.6667 20.8038 82.6667 22.7807V22.7808ZM79.4665 22.7808C79.4665 22.5924 79.2781 22.4046 79.0903 22.4046L76.1718 22.4039C75.4187 22.4039 74.7601 21.8392 74.5717 21.0862C74.1009 18.9214 73.3478 16.9444 72.1246 15.062C71.6538 14.4028 71.7483 13.5558 72.313 12.9912L74.3838 10.9203C74.4777 10.8265 74.4777 10.7319 74.4777 10.638C74.4777 10.5441 74.4777 10.4496 74.3838 10.3557L72.1246 8.09644C72.0307 8.00255 71.9361 8.00255 71.8422 8.00255C71.7483 8.00255 71.6538 8.00255 71.5599 8.09644L69.5829 10.3557C69.0182 10.9203 68.1712 11.0149 67.5121 10.5441C65.7235 9.32026 63.6527 8.47331 61.4879 8.09696C60.7348 7.90852 60.1701 7.24996 60.1701 6.49687V3.48444C60.1701 3.296 59.9817 3.10822 59.7939 3.10822H56.4991C56.3106 3.10822 56.1229 3.29666 56.1229 3.48444V6.49687C56.1229 7.24998 55.5582 7.90852 54.8051 8.09696C52.6403 8.56774 50.6633 9.32083 48.8749 10.5441C48.2157 11.0149 47.3687 10.9203 46.8041 10.3557L44.7333 8.28487C44.6394 8.19097 44.5448 8.19098 44.4509 8.19098C44.357 8.19098 44.2625 8.19097 44.1686 8.28487L41.9093 10.5441C41.8155 10.638 41.8155 10.9203 41.9093 11.0149L43.9802 13.0857C44.5448 13.6504 44.6394 14.4973 44.1686 15.1565C42.9447 16.9451 42.0978 19.0159 41.7214 21.1807C41.533 21.9338 40.8744 22.4984 40.1214 22.4984H37.1089C36.9205 22.4984 36.7327 22.6869 36.7327 22.8747V26.1695C36.7327 26.3579 36.9211 26.5457 37.1089 26.5457H40.4031C41.1562 26.5457 41.8147 27.1104 42.0032 27.8635C42.4739 30.0282 43.227 32.0053 44.4503 33.8876C44.9211 34.5469 44.8265 35.3938 44.2619 35.9585L42.1911 38.0293C42.0972 38.1232 42.0972 38.4055 42.1911 38.5L44.4503 40.7593C44.5442 40.8532 44.6387 40.8532 44.7326 40.8532C44.8265 40.8532 44.9211 40.8532 45.015 40.7593L47.0858 38.6885C47.3681 38.4061 47.8389 38.2177 48.2151 38.2177C48.4974 38.2177 48.8743 38.3116 49.0621 38.5C50.8507 39.7239 52.9215 40.5708 54.9923 40.9472C55.7454 41.1356 56.3101 41.7942 56.3101 42.5473V45.5597C56.3101 45.7481 56.4985 45.9359 56.6863 45.9359H59.9811C60.1696 45.9359 60.3574 45.7475 60.3574 45.5597V42.5473C60.3574 41.7942 60.922 41.1356 61.6751 40.9472C63.8399 40.4764 65.8169 39.7233 67.6993 38.5C68.3585 38.0293 69.2055 38.1238 69.7701 38.6885L71.8409 40.7593C71.9348 40.8532 72.0294 40.8532 72.1233 40.8532C72.2171 40.8532 72.3117 40.8532 72.4056 40.7593L74.6648 38.5C74.7587 38.4062 74.7587 38.3116 74.7587 38.2177C74.7587 38.1238 74.7587 38.0293 74.6648 37.9354L72.594 35.8646C72.0294 35.2999 71.9348 34.4529 72.4056 33.7938C73.6294 32.0052 74.4764 29.9343 74.8527 27.7696C75.0412 27.0165 75.6997 26.4518 76.4528 26.4518H79.4652C79.6537 26.4518 79.8415 26.2634 79.8415 26.0756L79.8428 22.7808L79.4665 22.7808Z" fill="#A96A24"/>
</svg>
