<svg width="273" height="15" viewBox="0 0 273 15" fill="none" xmlns="http://www.w3.org/2000/svg">
<path fill-rule="evenodd" clip-rule="evenodd" d="M189.083 3.45461C189.244 3.0731 189.367 2.79314 189.451 2.61657C189.576 2.91665 189.733 3.30091 189.921 3.77116C190.11 4.24141 190.318 4.75923 190.549 5.32463C190.769 5.86563 190.995 6.43015 191.23 7.01579L191.26 7.09219C191.503 7.70516 191.744 8.31814 191.98 8.93111H186.774L187.052 8.26214C187.282 7.70935 187.499 7.18651 187.705 6.6933C187.99 6.00531 188.252 5.38959 188.49 4.84432C188.726 4.29905 188.925 3.83611 189.083 3.45461ZM192.191 14.7955V14.9995H198.297V14.7553C197.976 14.7415 197.698 14.6802 197.46 14.5705C197.224 14.4616 197.024 14.3363 196.865 14.1926C196.704 14.0499 196.574 13.9099 196.478 13.7736C196.38 13.6373 196.316 13.543 196.289 13.4882C196.123 13.1332 195.973 12.8175 195.839 12.5376C195.708 12.2585 195.565 11.9081 195.411 11.4846C195.077 10.6273 194.742 9.75817 194.407 8.87988L194.32 8.65138L194.318 8.64536C194.011 7.83997 193.695 7.00874 193.372 6.15169C193.016 5.2121 192.642 4.235 192.253 3.2204C191.984 2.52281 191.707 1.79803 191.419 1.04575L191.414 1.03266L191.397 0.989114C191.273 0.664519 191.147 0.334822 191.019 0H190.852C190.796 0.0960629 190.715 0.219572 190.61 0.369614C190.507 0.51874 190.378 0.675185 190.225 0.838035C190.071 1.0018 189.894 1.15916 189.691 1.30829C189.49 1.45924 189.263 1.58916 189.01 1.69711L189.221 2.14632C188.886 2.90933 188.53 3.72999 188.154 4.60919C187.778 5.48748 187.398 6.35937 187.013 7.22393C186.631 8.08941 186.258 8.93111 185.896 9.7481C185.532 10.566 185.205 11.2943 184.912 11.9347C184.593 12.6291 184.32 13.1542 184.096 13.5074C183.874 13.8623 183.713 14.0883 183.616 14.1826C183.574 14.2365 183.424 14.3399 183.166 14.489C182.908 14.6382 182.599 14.7342 182.235 14.7745V14.9995H186.69V14.7955C186.508 14.7681 186.316 14.7379 186.115 14.7031C185.913 14.6693 185.725 14.6144 185.551 14.5394C185.375 14.4653 185.232 14.3701 185.121 14.2539C185.009 14.1386 184.954 13.9923 184.954 13.8139C184.954 13.5147 185.101 12.9978 185.393 12.2613L185.458 12.1028L185.459 12.1002L185.462 12.0949C185.634 11.6745 185.806 11.2569 185.978 10.8414C186.174 10.3721 186.377 9.87802 186.585 9.3611H192.149C192.358 9.89082 192.553 10.4022 192.734 10.8926C192.915 11.383 193.076 11.8286 193.215 12.2311C193.354 12.6327 193.462 12.9731 193.538 13.2539C193.615 13.5321 193.654 13.7333 193.654 13.8559C193.654 14.0462 193.588 14.2027 193.456 14.3253C193.323 14.447 193.169 14.543 192.995 14.6107C192.822 14.6802 192.654 14.7269 192.492 14.7553C192.333 14.7818 192.233 14.7955 192.191 14.7955ZM159.988 4.12833C159.877 3.88314 159.745 3.62789 159.591 3.36257C159.437 3.09634 159.28 2.8484 159.119 2.61694C158.96 2.38547 158.803 2.17139 158.649 1.97377C158.495 1.77616 158.364 1.62886 158.252 1.53371C157.96 1.26108 157.642 1.08085 157.302 0.992101C156.96 0.904272 156.525 0.853039 155.994 0.838401C155.729 0.838401 155.498 0.835656 155.303 0.828337C155.109 0.821933 154.913 0.818273 154.717 0.818273H154.113H153.338C153.338 1.15953 153.335 1.62246 153.328 2.20798C153.32 2.79351 153.317 3.40648 153.317 4.0469V5.94712V7.50059V12.0375C153.317 12.4318 153.328 12.8097 153.348 13.1711C153.37 13.5315 153.436 13.7877 153.547 13.9377C153.756 14.2369 154.052 14.4409 154.436 14.5507C154.819 14.6596 155.164 14.7419 155.471 14.795V14.9999H148.673V14.795C149.038 14.7556 149.385 14.6861 149.719 14.5919C150.054 14.4967 150.381 14.2707 150.703 13.9167C150.773 13.849 150.824 13.7365 150.859 13.5791C150.893 13.4226 150.922 13.2461 150.943 13.0485C150.965 12.8508 150.978 12.6368 150.985 12.4044C150.993 12.1729 150.995 11.9488 150.995 11.731C150.995 11.5398 150.999 11.2873 151.005 10.9735C151.012 10.6615 151.02 10.3139 151.027 9.93236C151.034 9.55085 151.038 9.15562 151.038 8.74667V7.58202V0.818273H150.262H149.657C149.476 0.818273 149.284 0.821933 149.082 0.828337C148.88 0.835656 148.646 0.838401 148.381 0.838401C147.85 0.853039 147.415 0.914336 147.075 1.02229C146.733 1.13208 146.415 1.32329 146.122 1.5941C146.01 1.69016 145.883 1.83288 145.736 2.02409C145.59 2.21439 145.437 2.42298 145.275 2.64713C145.114 2.87219 144.963 3.11463 144.817 3.37263C144.669 3.63246 144.555 3.88314 144.471 4.12833L144.283 4.06795L144.909 0.184258C145.23 0.253789 145.526 0.307767 145.799 0.348022C146.071 0.389192 146.465 0.416639 146.98 0.430362C147.51 0.444085 147.984 0.454149 148.403 0.460553C148.819 0.467872 149.224 0.470617 149.615 0.470617H150.807H152.208H153.589C154.006 0.470617 154.412 0.467872 154.802 0.460553L155.119 0.455382C155.41 0.450647 155.709 0.445781 156.014 0.440426C156.433 0.434022 156.907 0.430362 157.436 0.430362C157.898 0.416639 158.276 0.380043 158.576 0.317831C158.877 0.256534 159.187 0.178769 159.507 0.0827056L160.176 4.06795L159.988 4.12833ZM90.8807 5.17139C90.6297 4.4221 90.2805 3.74417 89.8339 3.1376C89.3882 2.53194 88.8573 2.01686 88.2449 1.59419C87.6307 1.17334 86.9631 0.900704 86.2374 0.77811C85.9593 0.723217 85.6522 0.678387 85.317 0.644537C84.9827 0.610686 84.5708 0.594218 84.0829 0.594218C83.9163 0.594218 83.7356 0.597877 83.5399 0.603367C83.3442 0.610686 83.1522 0.624409 82.965 0.644537C82.7768 0.665579 82.6017 0.682047 82.4425 0.69577C82.2814 0.709493 82.1513 0.729621 82.0549 0.757982C81.9846 1.42493 81.9434 2.34439 81.9285 3.51545C81.9153 4.68833 81.9079 6.08444 81.9079 7.70471V10.0953C81.9079 10.8043 81.9153 11.3835 81.9285 11.8327C81.9285 12.0239 81.9397 12.2316 81.9612 12.4566C81.9818 12.6808 82.0052 12.8985 82.0343 13.1089C82.0623 13.3212 82.1073 13.5115 82.17 13.6817C82.2318 13.8527 82.3049 13.9781 82.3891 14.0595C82.6672 14.3321 83.0202 14.5069 83.4462 14.581C83.8704 14.656 84.2711 14.6935 84.6475 14.6935C84.9968 14.6935 85.3554 14.6761 85.7253 14.6423C86.0942 14.6084 86.4397 14.5435 86.7599 14.4474C88.2655 14.0256 89.3919 13.205 90.1382 11.9855C90.8844 10.7668 91.2571 9.26458 91.2571 7.47964C91.2571 6.6901 91.1316 5.92068 90.8807 5.17139ZM93.4537 10.1365C93.2009 10.9132 92.8591 11.5802 92.4275 12.1392C91.9958 12.6972 91.493 13.1611 90.9228 13.528C90.3507 13.8966 89.743 14.1894 89.1026 14.4081C88.4612 14.6258 87.7983 14.7786 87.1166 14.8664C86.4322 14.9561 85.7702 15 85.1288 15H77.4959V14.7951C77.8451 14.7557 78.1831 14.6661 78.5108 14.5297C78.8376 14.3943 79.0848 14.2306 79.2534 14.0394C79.3226 13.9717 79.3732 13.8555 79.4088 13.6917C79.4434 13.5279 79.4762 13.345 79.5034 13.141C79.5305 12.936 79.553 12.7183 79.5661 12.4868C79.5801 12.2553 79.5876 12.0303 79.5876 11.8125C79.5876 11.6222 79.5895 11.3633 79.597 11.0358C79.6028 10.7805 79.6081 10.5075 79.6137 10.2154L79.6141 10.1964L79.6143 10.1816L79.6145 10.1731L79.6146 10.1682L79.6185 9.96264C79.626 9.57473 79.6298 9.17676 79.6298 8.76689V7.58211V3.59779V2.86222C79.6298 2.61703 79.6185 2.38922 79.597 2.17697C79.5764 1.96655 79.5455 1.77625 79.5034 1.60517C79.4612 1.435 79.3994 1.30234 79.3152 1.20719C79.1064 0.961087 78.8545 0.791833 78.5614 0.69577C78.2693 0.601537 77.9416 0.532921 77.5792 0.490836V0.287731C78.1644 0.287731 79.008 0.284072 80.111 0.276753C81.2112 0.270349 82.5427 0.266689 84.1045 0.266689H85.4434C85.9022 0.266689 86.3629 0.287731 86.8226 0.327986C87.2833 0.369156 87.744 0.437773 88.2028 0.532921C88.6635 0.628069 89.1157 0.770791 89.5614 0.961087C90.1485 1.20719 90.7 1.52008 91.215 1.90159C91.7309 2.2831 92.1812 2.73596 92.5651 3.26019C92.9472 3.78534 93.2543 4.39099 93.4846 5.07898C93.7131 5.76698 93.8282 6.55378 93.8282 7.43939C93.8282 8.46132 93.7047 9.36065 93.4537 10.1365ZM12.3586 14.7747V14.9997H19.5327V14.7948C19.1985 14.782 18.9035 14.7307 18.6535 14.642C18.4026 14.5542 18.1938 14.4508 18.0262 14.3364C17.8595 14.2202 17.7294 14.1105 17.6404 14.0089C17.5487 13.9064 17.4953 13.8415 17.4831 13.814C17.3988 13.6649 17.3399 13.4572 17.3052 13.1919C17.2706 12.9257 17.2528 12.6631 17.2528 12.4042C17.2378 11.6009 17.2322 10.8379 17.2322 10.1161V7.90937V6.0494C17.2322 5.43643 17.2378 4.80242 17.2528 4.14919C17.2668 3.67253 17.2874 3.18856 17.3146 2.69818C17.3436 2.20872 17.3988 1.84734 17.4831 1.61587C17.5945 1.31579 17.7996 1.05688 18.0992 0.838218C18.3988 0.620475 18.8342 0.506114 19.4063 0.491476V0.287457H14.9522C14.9101 0.396328 14.7397 0.795218 14.4401 1.48321C14.1395 2.17121 13.7556 3.03211 13.2893 4.06776C12.8211 5.10341 12.2968 6.26074 11.7116 7.54158C11.1245 8.82151 10.5262 10.1087 9.91197 11.4033L4.91385 0.287457H0.458801V0.491476C0.62734 0.518923 0.82865 0.562837 1.06554 0.624135C1.3015 0.685432 1.52528 0.78424 1.73502 0.920557C1.94382 1.05688 2.12453 1.24443 2.27809 1.48321C2.43164 1.72108 2.51591 2.03123 2.52902 2.41274C2.544 2.80797 2.55056 3.14098 2.55056 3.41362V4.2114V4.98722V5.98811C2.55056 6.90116 2.544 7.75658 2.52902 8.55344C2.51591 9.35031 2.49438 10.041 2.46722 10.6275C2.45224 11.321 2.40449 11.9111 2.32022 12.3941C2.23595 12.8781 2.10487 13.2834 1.92322 13.61C1.74251 13.9375 1.49719 14.1928 1.19007 14.3758C0.88483 14.5606 0.485954 14.7006 0 14.7948V14.9997H5.45692V14.7948C4.85673 14.7134 4.3867 14.5807 4.04494 14.3968C3.70505 14.2129 3.45037 13.9604 3.28277 13.6411C3.1161 13.3209 3.01029 12.9257 2.97003 12.4563C2.9279 11.9852 2.90543 11.4308 2.90543 10.7913V8.17468C2.90543 7.42631 2.90917 6.71361 2.91666 6.03934C2.92183 5.57442 2.9261 5.10646 2.93041 4.63515L2.93632 3.9964C2.94382 3.30841 2.94756 2.5152 2.94756 1.61587C3.01685 1.765 3.147 2.05136 3.3352 2.47403C3.5234 2.89671 3.7631 3.42094 4.05617 4.04672C4.34831 4.67342 4.67602 5.38977 5.04025 6.19213C5.40168 6.99631 5.79119 7.85722 6.21066 8.77851C6.6292 9.69705 7.0571 10.654 7.49624 11.6485C7.93444 12.643 8.37733 13.6448 8.82396 14.653H8.94942C8.97751 14.5706 9.0468 14.4041 9.15823 14.1516C9.26965 13.9 9.38856 13.6201 9.51497 13.3145C9.6395 13.0071 9.76497 12.7089 9.89137 12.4152C10.0159 12.1215 10.1152 11.9083 10.1844 11.7711C10.6432 10.7629 11.0655 9.83977 11.4494 9.00174C11.8324 8.16462 12.2125 7.34397 12.5889 6.53978C12.9653 5.73651 13.3445 4.9122 13.7284 4.06776L13.9264 3.63234C14.2557 2.90778 14.6107 2.1268 14.9934 1.28834V7.07133V9.60556C14.9934 10.4226 14.9794 11.2807 14.9522 12.18C14.9372 12.4527 14.9101 12.7217 14.868 12.987C14.8277 13.2532 14.7631 13.4746 14.6798 13.6503C14.5402 13.9375 14.2696 14.1891 13.8633 14.4078C13.4597 14.6255 12.9588 14.7481 12.3586 14.7747ZM41.5916 14.9997H54.3912L55.437 11.0968L55.2067 11.0355C54.8575 11.622 54.5194 12.1215 54.1917 12.5378C53.865 12.9531 53.526 13.3035 53.1768 13.5899C52.8294 13.8753 52.467 14.0976 52.0906 14.2541C51.7142 14.4105 51.3022 14.5167 50.8565 14.5706C50.452 14.6255 50.0644 14.6594 49.6945 14.6731C49.3256 14.6868 49.0241 14.6932 48.7863 14.6932C48.2283 14.6932 47.7123 14.653 47.2386 14.5706C46.7638 14.4883 46.4652 14.3529 46.3387 14.1617C46.2133 13.9714 46.1328 13.6823 46.0981 13.2935C46.0625 12.9056 46.0391 12.4939 46.0241 12.0575C46.0241 11.9211 46.0223 11.7537 46.0157 11.5561C46.0082 11.3594 46.0045 11.1517 46.0045 10.934V10.2387V9.62569V8.48117C46.0045 8.11338 46.0195 7.83434 46.0466 7.64313H46.5897H47.0082C47.1477 7.64313 47.2863 7.64679 47.4277 7.65411C47.5663 7.66143 47.7395 7.67058 47.9502 7.6843C48.3668 7.71175 48.7329 7.78677 49.0475 7.90937C49.3603 8.03196 49.629 8.18841 49.8519 8.37962C50.1028 8.61108 50.3444 8.95782 50.5747 9.42076C50.805 9.8846 50.9754 10.3338 51.0869 10.7702H51.3369V4.33308H51.0869C51.0026 4.71459 50.909 5.05858 50.805 5.36507C50.6992 5.67156 50.5597 5.94145 50.3865 6.17291C50.2105 6.40346 49.9857 6.60108 49.7058 6.76484C49.4277 6.92861 49.0784 7.05761 48.6599 7.15276C48.4792 7.19392 48.2517 7.22412 47.9811 7.24516C47.7086 7.26529 47.4361 7.28358 47.1655 7.29639C46.8931 7.31012 46.6534 7.31652 46.4436 7.31652H46.0241V7.09146C46.0241 6.96978 46.0223 6.79595 46.0157 6.57089C46.0082 6.34583 46.0045 6.05672 46.0045 5.70266V4.39438C46.0045 3.49504 46.0157 2.7055 46.0354 2.02391C46.0578 1.34232 46.0813 0.893111 46.1084 0.675368C46.2479 0.648837 46.4745 0.624135 46.7891 0.604007C47.1019 0.582965 47.4052 0.572901 47.6983 0.572901C48.6178 0.572901 49.3987 0.614071 50.041 0.696411C50.6824 0.777835 51.1215 0.872983 51.3593 0.981855C52.3481 1.45942 53.4071 2.38529 54.5372 3.76128L54.746 3.65881L53.3247 0.287457H41.7798V0.491476C42.1571 0.545455 42.4623 0.604007 42.7002 0.666219C42.938 0.726602 43.1609 0.866579 43.3697 1.08432C43.453 1.16575 43.5195 1.29932 43.5682 1.48321C43.6159 1.66619 43.6524 1.87478 43.673 2.10533C43.6927 2.33771 43.7077 2.5829 43.7152 2.84182C43.7217 3.09981 43.7255 3.35232 43.7255 3.59751V7.58275V8.76661C43.7255 9.17648 43.7217 9.57446 43.7152 9.96237C43.7077 10.3512 43.7002 10.7089 43.6927 11.0355C43.6852 11.3631 43.6833 11.622 43.6833 11.8123C43.6833 12.03 43.6768 12.2514 43.6618 12.4765C43.6487 12.7006 43.6234 12.9156 43.5888 13.1196C43.5541 13.3246 43.5157 13.5057 43.4736 13.6612C43.4314 13.8177 43.3762 13.9375 43.3069 14.019C43.1112 14.2367 42.864 14.4078 42.5644 14.5295C42.2648 14.653 41.9408 14.7417 41.5916 14.7948V14.9997ZM115.887 14.7948V14.9997H122.224V14.7948C121.931 14.7683 121.603 14.6932 121.242 14.5706C120.878 14.4471 120.615 14.2715 120.446 14.0391C120.335 13.89 120.273 13.6311 120.258 13.2633C120.245 12.8955 120.237 12.514 120.237 12.1188V7.50041V6.33576V5.27267C120.237 4.93233 120.241 4.59565 120.248 4.26172C120.254 3.9287 120.258 3.59019 120.258 3.25077C120.273 2.93605 120.283 2.60303 120.289 2.24806C120.296 1.89491 120.364 1.60123 120.488 1.37068C120.669 1.04407 120.927 0.825409 121.262 0.716538C121.597 0.607667 121.911 0.532646 122.204 0.491476V0.287457H115.951V0.491476C116.313 0.532646 116.637 0.604007 116.922 0.706474C117.209 0.808027 117.449 0.975451 117.645 1.20692C117.729 1.30206 117.791 1.43472 117.833 1.60489C117.875 1.77598 117.906 1.96627 117.926 2.17669C117.948 2.38895 117.957 2.61675 117.957 2.86194V3.59751V7.58275V8.76661C117.957 9.17648 117.954 9.57446 117.948 9.96237L117.944 10.1731V10.1734V10.1737V10.1742L117.944 10.1748C117.938 10.4824 117.932 10.7693 117.926 11.0355C117.919 11.3631 117.917 11.622 117.917 11.8123C117.917 12.03 117.913 12.2514 117.906 12.4765C117.898 12.7006 117.884 12.9156 117.864 13.1196C117.844 13.3246 117.815 13.5011 117.779 13.6503C117.745 13.8003 117.694 13.9165 117.623 13.9979C117.414 14.2303 117.16 14.4078 116.86 14.5295C116.56 14.653 116.236 14.7417 115.887 14.7948ZM236.061 4.12833C235.949 3.88314 235.817 3.62789 235.664 3.36257C235.51 3.09634 235.353 2.8484 235.192 2.61694C235.033 2.38547 234.875 2.17139 234.722 1.97377C234.568 1.77616 234.437 1.62886 234.325 1.53371C234.033 1.26108 233.714 1.08085 233.374 0.992101C233.033 0.904272 232.597 0.853039 232.066 0.838401C231.801 0.838401 231.571 0.835656 231.375 0.828337C231.181 0.821933 230.986 0.818273 230.79 0.818273H230.185H229.411C229.411 1.15953 229.408 1.62246 229.401 2.20798C229.393 2.79351 229.389 3.40648 229.389 4.0469V5.94712V7.50059V12.0375C229.389 12.4318 229.401 12.8097 229.42 13.1711C229.443 13.5315 229.508 13.7877 229.62 13.9377C229.828 14.2369 230.124 14.4409 230.508 14.5507C230.891 14.6596 231.237 14.7419 231.544 14.795V14.9999H224.746V14.795C225.11 14.7556 225.458 14.6861 225.792 14.5919C226.127 14.4967 226.454 14.2707 226.776 13.9167C226.845 13.849 226.897 13.7365 226.931 13.5791C226.966 13.4226 226.995 13.2461 227.016 13.0485C227.037 12.8508 227.05 12.6368 227.058 12.4044C227.065 12.1729 227.068 11.9488 227.068 11.731C227.068 11.5398 227.072 11.2873 227.077 10.9735C227.085 10.6615 227.092 10.3139 227.1 9.93236C227.107 9.55085 227.11 9.15562 227.11 8.74667V7.58202V0.818273H226.335H225.73C225.548 0.818273 225.357 0.821933 225.154 0.828337C224.953 0.835656 224.719 0.838401 224.454 0.838401C223.923 0.853039 223.488 0.914336 223.148 1.02229C222.806 1.13208 222.488 1.32329 222.195 1.5941C222.084 1.69016 221.956 1.83288 221.81 2.02409C221.664 2.21439 221.509 2.42298 221.349 2.64713C221.188 2.87219 221.036 3.11463 220.889 3.37263C220.741 3.63246 220.628 3.88314 220.544 4.12833L220.356 4.06795L220.983 0.184258C221.303 0.253789 221.599 0.307767 221.872 0.348022C222.144 0.389192 222.537 0.416639 223.053 0.430362C223.583 0.444085 224.057 0.454149 224.475 0.460553C224.892 0.467872 225.297 0.470617 225.688 0.470617H226.88H228.281H229.662C230.078 0.470617 230.485 0.467872 230.874 0.460553L231.191 0.455383C231.483 0.450648 231.782 0.445782 232.087 0.440426C232.505 0.434022 232.979 0.430362 233.509 0.430362C233.971 0.416639 234.349 0.380043 234.649 0.317831C234.949 0.256534 235.26 0.178769 235.579 0.0827056L236.249 4.06795L236.061 4.12833ZM258.308 14.9997H271.107L272.153 11.0968L271.923 11.0355C271.574 11.622 271.236 12.1215 270.908 12.5378C270.581 12.9531 270.242 13.3035 269.893 13.5899C269.546 13.8753 269.183 14.0976 268.807 14.2541C268.43 14.4105 268.018 14.5167 267.573 14.5706C267.168 14.6255 266.781 14.6594 266.411 14.6731C266.042 14.6868 265.74 14.6932 265.502 14.6932C264.944 14.6932 264.428 14.653 263.955 14.5706C263.48 14.4883 263.181 14.3529 263.055 14.1617C262.929 13.9714 262.849 13.6823 262.814 13.2935C262.779 12.9056 262.755 12.4939 262.74 12.0575C262.74 11.9211 262.738 11.7537 262.732 11.5561C262.724 11.3594 262.721 11.1517 262.721 10.934V10.2387V9.62569V8.48117C262.721 8.11338 262.736 7.83434 262.763 7.64313H263.306H263.724C263.864 7.64313 264.002 7.64679 264.144 7.65411C264.282 7.66143 264.456 7.67058 264.666 7.6843C265.083 7.71175 265.449 7.78677 265.764 7.90937C266.076 8.03196 266.345 8.18841 266.568 8.37962C266.819 8.61108 267.06 8.95782 267.291 9.42076C267.521 9.8846 267.692 10.3338 267.803 10.7702H268.053V4.33308H267.803C267.719 4.71459 267.625 5.05858 267.521 5.36507C267.415 5.67156 267.276 5.94145 267.103 6.17291C266.927 6.40346 266.702 6.60108 266.422 6.76484C266.144 6.92861 265.795 7.05761 265.376 7.15276C265.195 7.19392 264.968 7.22412 264.697 7.24516C264.425 7.26529 264.152 7.28358 263.882 7.29639C263.609 7.31012 263.369 7.31652 263.16 7.31652H262.74V7.09146C262.74 6.96978 262.738 6.79595 262.732 6.57089C262.724 6.34583 262.721 6.05672 262.721 5.70266V4.39438C262.721 3.49504 262.732 2.7055 262.751 2.02391C262.774 1.34232 262.797 0.893111 262.825 0.675368C262.964 0.648837 263.191 0.624135 263.505 0.604007C263.818 0.582965 264.121 0.572901 264.414 0.572901C265.334 0.572901 266.115 0.614071 266.757 0.696411C267.398 0.777835 267.838 0.872983 268.075 0.981855C269.064 1.45942 270.123 2.38529 271.253 3.76128L271.462 3.65881L270.041 0.287457H258.496V0.491476C258.873 0.545455 259.178 0.604007 259.416 0.666219C259.654 0.726602 259.877 0.866579 260.086 1.08432C260.169 1.16575 260.236 1.29932 260.284 1.48321C260.332 1.66619 260.369 1.87478 260.389 2.10533C260.409 2.33771 260.424 2.5829 260.431 2.84182C260.438 3.09981 260.442 3.35232 260.442 3.59751V7.58275V8.76661C260.442 9.17648 260.438 9.57446 260.431 9.96237C260.424 10.3512 260.416 10.7089 260.409 11.0355C260.401 11.3631 260.399 11.622 260.399 11.8123C260.399 12.03 260.393 12.2514 260.378 12.4765C260.365 12.7006 260.34 12.9156 260.305 13.1196C260.27 13.3246 260.232 13.5057 260.19 13.6612C260.148 13.8177 260.092 13.9375 260.023 14.019C259.827 14.2367 259.58 14.4078 259.281 14.5295C258.981 14.653 258.657 14.7417 258.308 14.7948V14.9997Z" fill="white"/>
</svg>
