<svg width="31" height="31" viewBox="0 0 31 31" fill="none" xmlns="http://www.w3.org/2000/svg">
<path fill-rule="evenodd" clip-rule="evenodd" d="M15.1435 30.3086C6.77545 30.3026 -0.00395828 23.5152 1.73397e-06 15.1471C0.00396523 6.77904 6.7898 -0.00197895 15.1579 4.33229e-07C23.526 0.00198069 30.3086 6.78621 30.3086 15.1543C30.3055 23.5267 23.5159 30.3114 15.1435 30.3086ZM15.1436 0.80332C7.21907 0.808951 0.799033 7.23659 0.802786 15.1611C0.806539 23.0856 7.23266 29.5071 15.1572 29.5053C23.0817 29.5034 29.5047 23.0788 29.5047 15.1543C29.5034 11.3468 27.9896 7.69584 25.2963 5.00451C22.6031 2.31318 18.951 0.801967 15.1436 0.80332ZM12.8816 19.1828C13.1872 19.3378 13.5519 19.3197 13.8407 19.1352L18.8679 15.8947C19.1241 15.7354 19.2798 15.4551 19.2798 15.1534C19.2798 14.8518 19.1241 14.5715 18.8679 14.4122L13.8407 11.1728C13.5518 10.9887 13.1871 10.9708 12.8816 11.1258C12.5812 11.2747 12.3901 11.5798 12.387 11.915V18.3936C12.3899 18.7289 12.5812 19.034 12.8816 19.1828Z" fill="#270000"/>
</svg>
